<?xml version="1.0" standalone="no"?>
<!DOCTYPE svg PUBLIC "-//W3C//DTD SVG 20010904//EN"
 "http://www.w3.org/TR/2001/REC-SVG-20010904/DTD/svg10.dtd">
<svg version="1.0" xmlns="http://www.w3.org/2000/svg"
 width="50.000000pt" height="50.000000pt" viewBox="0 0 50.000000 50.000000"
 preserveAspectRatio="xMidYMid meet">
<metadata>
Created by potrace 1.16, written by Peter Selinger 2001-2019
</metadata>
<g transform="translate(0.000000,50.000000) scale(0.009766,-0.009766)"
fill="#000000" stroke="none">
<path d="M3600 3720 l0 -40 -40 0 -40 0 0 -40 0 -40 -40 0 -40 0 0 -40 0 -40
-40 0 -40 0 0 -40 0 -40 -40 0 -40 0 0 -40 0 -40 -40 0 -40 0 0 -40 0 -40 -40
0 -40 0 0 -40 0 -40 -40 0 -40 0 0 40 0 40 -40 0 -40 0 0 80 0 80 -40 0 -40 0
0 40 0 40 -40 0 -40 0 0 40 0 40 -240 0 -240 0 0 -40 0 -40 -40 0 -40 0 0 -40
0 -40 -40 0 -40 0 0 -80 0 -80 -40 0 -40 0 0 -40 0 -40 -40 0 -40 0 0 -80 0
-80 -40 0 -40 0 0 -80 0 -80 -80 0 -80 0 0 40 0 40 -80 0 -80 0 0 -80 0 -80
80 0 80 0 0 -120 0 -120 -80 0 -80 0 0 -80 0 -80 -80 0 -80 0 0 -280 0 -280
-40 0 -40 0 0 -40 0 -40 -40 0 -40 0 0 -80 0 -80 80 0 80 0 0 40 0 40 40 0 40
0 0 40 0 40 1000 0 1000 0 0 80 0 80 80 0 80 0 0 240 0 240 -80 0 -80 0 0 80
0 80 -80 0 -80 0 0 160 0 160 -80 0 -80 0 0 120 0 120 40 0 40 0 0 40 0 40 40
0 40 0 0 40 0 40 40 0 40 0 0 40 0 40 40 0 40 0 0 40 0 40 40 0 40 0 0 40 0
40 40 0 40 0 0 40 0 40 40 0 40 0 0 80 0 80 -80 0 -80 0 0 -40z m-400 -880 l0
-40 -640 0 -640 0 0 40 0 40 640 0 640 0 0 -40z m-800 -240 l0 -40 40 0 40 0
0 -40 0 -40 -120 0 -120 0 0 80 0 80 80 0 80 0 0 -40z m480 -40 l0 -80 -120 0
-120 0 0 40 0 40 40 0 40 0 0 40 0 40 80 0 80 0 0 -80z m-800 -120 l0 -40 720
0 720 0 0 -240 0 -240 -960 0 -960 0 0 240 0 240 80 0 80 0 0 40 0 40 160 0
160 0 0 -40z"/>
<path d="M2480 2280 l0 -40 -40 0 -40 0 0 -40 0 -40 40 0 40 0 0 40 0 40 80 0
80 0 0 40 0 40 -80 0 -80 0 0 -40z"/>
</g>
</svg>
