<?xml version="1.0" standalone="no"?>
<!DOCTYPE svg PUBLIC "-//W3C//DTD SVG 20010904//EN"
 "http://www.w3.org/TR/2001/REC-SVG-20010904/DTD/svg10.dtd">
<svg version="1.0" xmlns="http://www.w3.org/2000/svg"
 width="1220.000000pt" height="609.000000pt" viewBox="0 0 1220.000000 609.000000"
 preserveAspectRatio="xMidYMid meet">
<metadata>
Created by potrace 1.16, written by Peter Selinger 2001-2019
</metadata>
<g transform="translate(0.000000,609.000000) scale(0.100000,-0.100000)"
fill="#000000" stroke="none">
<path d="M0 5081 c0 -756 3 -1023 12 -1062 10 -42 10 -53 0 -57 -10 -3 -12
-215 -12 -993 1 -757 4 -988 13 -982 9 5 9 3 0 -8 -16 -20 -17 -312 -1 -303 6
4 5 -3 -2 -15 -14 -27 -11 -153 4 -164 8 -6 7 -10 -2 -14 -19 -8 -15 -93 5
-109 13 -10 14 -13 4 -14 -11 0 -11 -3 -1 -15 7 -9 10 -19 6 -22 -4 -4 -11 -1
-16 7 -5 9 -9 -260 -9 -658 l0 -672 589 0 c333 0 591 4 594 9 3 5 17 12 30 15
14 3 52 24 85 46 33 22 64 40 69 40 5 0 30 16 56 36 26 20 58 37 71 38 12 0
20 6 18 12 -2 7 10 17 28 23 38 13 129 15 129 2 0 -8 39 -2 105 15 17 4 16 2
-5 -15 -13 -11 -28 -17 -32 -15 -4 3 -8 1 -8 -5 0 -6 -20 -22 -45 -37 -25 -14
-51 -34 -58 -43 -6 -9 -28 -23 -47 -30 -32 -13 -140 -80 -140 -88 0 -1 36 -3
79 -3 75 0 79 1 85 25 4 17 11 23 23 18 14 -6 14 -8 -3 -20 -21 -15 -22 -15
34 -18 39 -3 42 -2 38 20 -3 17 -1 22 9 19 7 -3 16 0 20 5 3 6 11 9 16 6 14
-9 11 -25 -6 -25 -9 0 -12 -6 -9 -15 4 -8 12 -15 19 -15 10 0 13 12 10 40 -3
23 -7 46 -10 53 -4 7 2 2 14 -11 19 -22 40 -15 25 9 -4 7 1 10 11 7 10 -1 20
-10 22 -18 4 -13 3 -13 -6 0 -9 12 -11 11 -11 -7 0 -19 5 -23 33 -23 20 0 27
3 19 8 -18 12 -4 42 19 42 24 0 44 36 30 54 -11 13 -5 26 11 26 5 0 7 -4 3 -9
-3 -5 0 -13 6 -17 16 -10 38 22 32 47 -5 17 -1 19 31 15 26 -3 38 0 46 12 9
16 9 15 10 -1 0 -18 25 -19 25 -1 1 5 5 19 9 32 6 19 10 21 22 11 9 -8 14 -8
14 -1 0 6 -8 16 -17 22 -14 8 -10 9 20 4 31 -5 37 -3 37 11 0 10 5 15 14 12 7
-3 20 0 27 6 7 7 5 2 -5 -10 -16 -19 -17 -25 -6 -39 12 -13 11 -17 -1 -24 -11
-7 -11 -12 -2 -21 10 -10 14 -7 21 11 8 21 9 21 15 5 6 -14 10 -15 22 -5 8 7
15 20 15 29 0 14 2 14 11 1 9 -12 10 -12 5 3 -3 10 -6 21 -6 23 0 2 -7 4 -15
4 -9 0 -12 -6 -9 -15 8 -19 -13 -20 -31 -1 -22 22 14 50 53 41 21 -4 31 -2 35
9 4 9 14 12 25 9 11 -2 33 2 50 11 27 14 31 14 43 0 6 -8 13 -29 15 -47 6 -72
6 -72 103 -72 58 1 94 5 105 14 8 7 21 9 27 5 7 -4 9 -3 6 3 -3 5 44 33 106
62 62 29 130 62 151 73 38 20 55 20 617 21 460 0 581 -2 593 -12 9 -8 16 -9
16 -4 0 6 49 11 120 12 142 2 142 2 111 -93 -12 -36 -21 -67 -21 -69 0 -5 162
0 180 6 8 3 76 24 150 47 74 23 158 50 185 60 49 18 121 36 178 45 16 3 33 8
38 11 6 3 17 -2 24 -12 8 -11 15 -14 15 -8 0 16 38 25 44 10 3 -8 7 -7 14 2 5
8 18 12 28 10 18 -3 21 -12 46 -120 10 -43 29 -65 48 -53 4 3 0 35 -11 72 -10
38 -36 147 -59 243 -23 96 -48 204 -56 238 -16 66 -14 82 8 65 7 -6 23 -9 34
-7 30 5 39 -9 58 -96 21 -91 35 -148 80 -310 19 -69 38 -142 41 -163 4 -20 10
-39 14 -41 9 -6 219 100 244 122 14 12 47 17 145 19 155 5 134 5 212 3 36 -1
68 -1 73 0 49 11 112 -3 122 -28 4 -10 9 -13 13 -6 10 16 105 25 99 9 -4 -8 5
-12 24 -13 22 0 29 4 29 19 0 10 3 19 8 20 63 8 520 12 531 4 6 -3 11 -3 11 2
0 4 47 8 105 8 73 0 105 -4 105 -12 0 -6 -6 -14 -13 -16 -9 -4 -8 -8 3 -16 19
-13 32 20 66 169 24 105 73 265 74 243 0 -16 -46 -215 -66 -283 -9 -30 -18
-62 -19 -70 -1 -8 -4 -22 -7 -30 -23 -57 -37 -115 -29 -119 5 -3 49 -6 98 -5
72 1 95 5 126 23 31 19 37 20 37 7 0 -9 5 -16 10 -16 6 0 10 8 10 19 0 24 95
67 107 48 10 -16 43 -18 43 -3 0 6 4 4 10 -4 5 -8 12 -11 15 -8 14 14 -7 28
-33 22 -42 -10 -14 12 31 24 42 12 70 6 61 -12 -3 -6 1 -3 10 8 8 10 21 16 29
13 8 -3 19 -1 24 4 9 9 63 2 63 -8 0 -2 -7 -11 -15 -19 -8 -9 -15 -21 -15 -27
0 -8 3 -7 9 2 6 9 11 10 15 2 11 -16 26 -13 26 5 0 20 39 56 52 48 5 -3 2 -12
-8 -18 -16 -12 -16 -13 0 -19 10 -4 26 -3 35 3 10 5 22 6 26 2 5 -4 5 1 1 12
-5 14 -2 17 9 12 8 -3 15 -2 15 2 0 12 53 8 57 -4 2 -7 -4 -20 -14 -29 -16
-17 -16 -17 5 -11 18 6 22 3 24 -16 0 -13 2 -27 3 -33 2 -5 3 -16 4 -22 2 -25
21 -12 22 15 l1 27 7 -25 c6 -21 13 -25 47 -25 37 0 39 -2 44 -35 3 -23 8 -31
13 -23 5 7 5 18 1 24 -4 7 2 9 17 7 19 -2 23 -8 21 -27 -3 -19 0 -22 13 -17 9
3 18 6 20 6 2 0 1 10 -3 22 -3 14 -2 19 6 14 7 -4 12 -18 12 -32 0 -14 4 -22
10 -19 13 8 13 48 -1 62 -6 6 -10 16 -7 23 4 14 48 -21 48 -39 0 -6 5 -11 10
-11 6 0 10 6 10 14 0 8 5 18 12 22 7 4 8 3 4 -4 -4 -7 -2 -12 3 -12 10 0 15
20 12 48 -1 6 6 12 15 12 10 0 14 -3 11 -7 -4 -3 -2 -12 4 -20 8 -8 8 -13 1
-13 -6 0 -9 -8 -8 -17 2 -10 8 -18 15 -18 6 0 16 -6 20 -14 11 -17 32 -6 25
13 -6 16 19 28 41 20 8 -3 17 -14 20 -25 4 -10 11 -19 16 -19 5 0 9 -6 9 -13
0 -8 8 -22 19 -31 10 -9 21 -29 24 -44 4 -20 12 -28 29 -29 21 -2 22 -1 6 11
-10 7 -18 16 -18 19 0 3 -11 23 -25 44 -25 39 -33 50 -85 117 -16 21 -30 44
-30 51 0 21 28 37 52 31 l23 -7 -22 17 c-34 24 -28 37 8 19 30 -16 65 -14 55
4 -3 5 3 11 14 14 11 3 23 1 26 -4 3 -5 0 -9 -5 -9 -6 0 -11 -4 -11 -8 0 -4 9
-8 20 -8 13 0 20 7 20 18 0 10 7 18 15 18 17 0 15 -38 -3 -49 -8 -5 -4 -15 11
-33 12 -15 37 -45 56 -67 19 -23 40 -41 47 -41 8 0 14 -8 15 -17 0 -13 2 -14
6 -4 3 7 -7 24 -23 37 l-29 23 33 7 c22 4 31 11 28 20 -3 8 -1 14 5 14 5 0 7
12 4 28 -6 25 -6 26 9 8 11 -13 12 -24 6 -37 -7 -12 -6 -19 3 -22 9 -4 9 -7
-1 -15 -9 -6 -11 -18 -6 -35 4 -19 2 -27 -7 -27 -10 0 -11 -2 0 -12 10 -11 17
-8 36 14 23 27 23 27 29 5 9 -36 7 -47 -10 -47 -14 0 -14 -3 -4 -15 19 -23 38
-18 33 9 -3 13 0 27 6 30 6 4 11 0 11 -11 0 -10 4 -24 9 -32 8 -12 12 -12 26
2 15 16 10 22 -16 19 -3 -1 -4 10 -1 24 3 18 8 22 15 15 15 -15 30 -14 24 3
-4 9 3 13 24 12 23 -1 28 -4 23 -20 -4 -12 -2 -16 5 -12 6 4 16 -3 22 -17 8
-18 17 -23 32 -19 16 4 19 2 14 -13 -6 -14 -3 -16 17 -11 15 4 26 1 29 -7 3
-9 7 -9 20 2 15 12 17 11 17 -8 0 -11 5 -21 10 -21 6 0 10 6 10 14 0 8 10 14
25 14 15 0 25 -6 25 -14 0 -8 7 -14 15 -14 8 0 15 9 15 19 0 11 5 23 10 26 6
3 10 3 10 -2 0 -4 11 -13 25 -20 15 -6 25 -7 25 -1 0 5 5 6 10 3 6 -4 8 -11 5
-16 -4 -5 -1 -9 4 -9 6 0 11 7 11 15 0 8 5 15 10 15 6 0 10 -9 10 -20 0 -11 5
-20 10 -20 6 0 10 5 10 10 0 20 18 9 24 -15 6 -22 11 -24 37 -20 28 5 31 3 26
-15 -8 -29 19 -26 39 6 12 17 20 22 27 15 17 -17 30 -13 25 7 -4 15 -1 18 18
14 13 -2 24 -11 24 -19 0 -12 -3 -13 -13 -4 -11 8 -17 5 -26 -16 -12 -26 -3
-42 22 -43 15 0 6 19 -10 23 -10 3 -1 5 20 6 21 1 37 -4 37 -10 0 -6 -7 -9
-15 -5 -8 3 -15 1 -15 -4 0 -13 27 -13 35 0 3 5 12 7 20 3 11 -4 14 0 9 13 -5
18 -5 18 9 2 10 -13 16 -15 25 -6 9 9 12 8 12 -5 0 -19 11 -22 27 -6 8 8 13 8
17 0 10 -16 36 -13 36 4 0 8 8 15 18 15 14 0 15 -2 2 -10 -23 -14 -5 -23 20
-10 17 9 24 9 29 1 5 -8 195 -10 681 -9 602 3 670 5 644 18 -31 16 -106 62
-114 70 -3 3 -17 11 -32 19 -14 7 -29 22 -31 32 -7 26 0 24 27 -8 18 -21 27
-25 37 -17 8 6 41 14 73 17 65 6 73 3 212 -84 l69 -44 388 -3 387 -3 -1 973
c-1 535 -4 957 -8 938 -9 -51 -21 -23 -20 45 1 39 -3 60 -12 66 -10 6 -11 9
-1 9 8 0 12 19 12 60 0 52 -2 59 -17 53 -15 -6 -16 -4 -5 9 10 13 10 17 -3 22
-8 3 -15 11 -15 17 0 8 4 8 15 -1 21 -17 37 -3 23 20 -10 15 -10 22 0 32 6 6
12 18 12 25 0 17 -57 17 -63 1 -3 -7 -6 -3 -6 10 -1 17 7 26 29 33 l29 11 1
284 c0 244 -2 285 -15 290 -8 4 -15 10 -15 16 0 5 4 7 9 3 5 -3 12 -1 15 4 4
5 7 176 8 380 1 212 5 371 10 371 5 0 6 5 2 12 -12 19 -14 87 -3 116 7 18 7
28 0 30 -15 5 -14 69 2 75 10 4 10 6 0 6 -18 1 -17 80 1 87 11 4 14 32 15 124
0 92 -3 118 -12 114 -10 -3 -13 16 -12 83 1 57 5 88 13 91 7 2 12 12 12 23 0
13 -5 17 -16 12 -13 -5 -15 1 -11 33 2 23 9 38 15 36 7 -1 12 2 12 8 0 5 -8
10 -17 10 -17 1 -17 1 0 14 18 14 23 46 7 46 -5 0 -10 7 -10 16 0 8 5 12 10 9
6 -3 10 3 10 14 0 14 -5 19 -15 15 -11 -5 -15 1 -15 25 0 18 6 34 14 37 13 5
15 92 16 610 0 536 -1 603 -15 598 -12 -5 -15 3 -15 40 0 45 -7 55 -26 37 -5
-6 -85 -44 -179 -86 -93 -42 -201 -91 -240 -110 -38 -18 -124 -59 -190 -90
-215 -103 -273 -127 -287 -119 -4 3 -8 0 -8 -5 0 -6 -7 -11 -15 -11 -8 0 -15
-4 -15 -10 0 -5 -7 -10 -15 -10 -8 0 -29 -9 -47 -20 -18 -11 -39 -20 -46 -20
-7 0 -20 -7 -28 -15 -19 -18 -60 -20 -68 -2 -3 6 -3 2 0 -10 3 -13 1 -23 -5
-23 -6 0 -11 7 -11 15 0 8 -3 15 -6 15 -9 0 -34 -28 -34 -39 0 -12 -32 -31
-51 -31 -7 0 -4 6 6 14 18 13 17 14 -8 11 -22 -3 -27 1 -27 18 0 16 3 18 12 9
17 -17 28 -15 28 5 0 15 2 14 15 -3 13 -17 14 -17 15 -1 0 9 3 17 8 17 12 0
31 51 25 67 -4 11 -2 14 5 9 8 -5 12 1 12 15 0 18 -2 20 -15 9 -12 -10 -19
-10 -27 -2 -9 9 -9 12 0 12 7 0 12 7 12 15 0 8 4 15 10 15 5 0 7 7 4 15 -4 8
-3 23 0 32 6 15 8 14 21 -4 8 -12 12 -28 9 -37 -3 -8 -1 -23 5 -33 10 -17 10
-17 11 0 0 9 6 17 13 17 9 0 9 2 -1 9 -10 6 -10 10 1 20 11 9 17 8 27 -4 11
-13 14 -12 26 11 14 27 8 57 -7 33 -4 -7 -11 -10 -16 -6 -12 13 13 42 36 41
25 -2 27 9 5 30 -8 9 -11 16 -6 16 5 0 16 -7 23 -16 12 -15 14 -14 19 1 6 16
7 16 23 1 23 -24 21 -33 -9 -49 -15 -8 -22 -17 -17 -20 14 -9 66 41 60 56 -19
47 -20 50 -9 43 8 -5 12 0 12 13 0 21 17 37 28 27 3 -4 1 -15 -6 -26 -7 -12
-8 -21 -2 -25 6 -3 10 -1 10 6 0 6 10 22 23 34 20 20 62 72 78 98 4 5 12 6 19
2 9 -6 10 -1 5 16 -7 20 -6 22 7 12 8 -7 18 -10 21 -6 11 11 8 23 -5 21 -7 -2
-13 4 -13 12 0 8 8 16 18 18 9 2 17 -2 17 -8 0 -6 5 -8 10 -5 5 3 10 15 10 26
0 31 19 22 35 -17 20 -49 19 -57 -7 -49 -38 12 -40 11 -49 -20 l-8 -30 19 22
c10 13 23 23 29 23 15 0 14 -47 -1 -53 -7 -2 -10 -8 -6 -12 4 -4 20 7 35 25
28 33 32 58 19 116 -5 23 -3 31 8 31 9 0 13 -8 10 -24 -3 -13 1 -23 7 -23 6 0
9 -6 6 -14 -6 -15 19 -30 34 -20 5 3 9 -2 9 -10 0 -11 -10 -16 -27 -17 l-28 0
25 -10 c19 -8 21 -12 10 -19 -11 -7 -11 -11 -1 -24 14 -16 36 -12 26 4 -3 5 0
20 7 32 7 13 11 29 10 36 -2 8 9 12 31 12 22 0 37 6 41 15 9 25 26 17 32 -15
5 -25 8 -27 20 -15 18 17 18 25 0 25 -7 0 -16 8 -20 18 -3 9 -8 22 -11 28 -9
19 26 26 39 8 11 -14 13 -14 25 0 12 15 15 15 27 -1 8 -11 13 -13 14 -5 0 6 7
12 16 12 10 0 14 6 11 14 -6 15 12 26 44 26 10 0 19 4 19 9 0 4 -62 9 -137 10
-90 0 -133 -2 -123 -9 8 -5 12 -12 8 -15 -3 -3 -13 1 -21 10 -20 19 -162 22
-171 3 -5 -10 -7 -10 -12 -1 -8 19 -4214 19 -4214 1 -1 -7 -10 -31 -21 -53
-20 -41 -21 -34 -3 40 l6 25 -3591 0 -3591 0 0 -1009z m7138 862 l3 -33 -68 1
c-37 1 -219 1 -403 0 -184 -1 -336 2 -338 7 -1 5 7 17 18 27 15 14 20 15 20 4
0 -12 2 -12 9 0 6 9 14 10 22 5 8 -5 51 -7 97 -6 54 2 88 -1 98 -8 8 -7 14 -9
14 -4 0 9 187 10 196 1 3 -2 22 0 42 5 20 5 63 9 95 10 31 1 57 5 57 10 0 5 9
6 20 3 12 -4 20 -2 20 4 0 7 19 10 48 9 45 -3 47 -4 50 -35z m295 9 c17 -13
49 -11 65 5 18 18 33 17 26 -2 -7 -18 7 -20 24 -3 10 10 15 10 23 -2 8 -11 12
-12 16 -2 2 6 10 9 16 5 17 -11 81 -10 89 1 4 6 12 5 21 -2 8 -7 25 -11 38
-11 13 1 36 -2 52 -6 20 -5 27 -4 27 6 0 12 2 12 9 0 6 -9 11 -10 15 -2 4 6
13 8 19 4 7 -4 18 -8 26 -8 8 0 16 -6 18 -12 4 -10 -63 -13 -311 -13 -174 0
-316 2 -316 5 0 8 37 42 51 47 20 7 78 1 92 -10z m3364 -1454 c0 -241 -4 -398
-10 -405 -5 -7 -5 -13 0 -13 5 0 10 -136 11 -317 2 -174 5 -320 8 -325 3 -4 0
-8 -5 -8 -6 0 -11 7 -11 15 0 9 -9 15 -25 15 l-26 0 1 223 2 222 -84 -3 c-45
-2 -80 -1 -76 3 4 4 3 18 -2 30 -6 16 -5 25 3 28 7 2 9 7 6 11 -10 10 -39 -5
-39 -20 0 -8 4 -14 10 -14 10 0 9 -35 -2 -46 -11 -11 -30 37 -24 62 4 16 2 24
-6 25 -10 0 -10 2 0 6 6 2 10 9 7 14 -4 5 2 6 11 2 11 -4 22 1 30 12 13 18 14
18 14 -5 0 -30 12 -18 16 15 3 25 -7 30 -54 28 -10 -1 -9 4 4 18 13 14 19 16
30 6 35 -31 44 -37 44 -29 0 5 -7 15 -15 22 -20 16 -19 26 6 61 14 20 16 29 7
29 -8 1 -6 6 6 15 19 14 19 15 -7 15 -15 0 -27 5 -27 10 0 6 4 10 9 10 15 0
22 32 10 46 -6 8 -8 14 -3 14 4 0 2 6 -4 12 -10 10 -15 10 -22 -2 -5 -8 -10
-10 -10 -5 0 18 14 30 38 32 14 2 22 -3 22 -12 0 -15 19 -22 21 -7 0 4 2 21 3
39 3 23 0 30 -10 26 -8 -3 -14 -9 -14 -14 0 -5 -4 -9 -10 -9 -5 0 -10 7 -10
16 0 8 -4 13 -9 9 -6 -3 -15 4 -21 15 -6 11 -18 19 -27 18 -9 -2 -18 3 -21 11
-3 10 0 12 12 8 19 -7 46 1 46 14 0 5 -9 9 -19 9 -11 0 -23 4 -26 10 -3 6 1 7
10 4 10 -4 27 3 43 19 31 30 58 23 47 -12 -8 -25 -2 -27 19 -5 9 8 16 27 16
40 0 14 4 22 10 19 6 -4 10 6 10 22 0 17 -3 23 -8 16 -5 -8 -13 -9 -22 -3 -15
9 -7 25 13 25 7 0 13 8 15 18 2 9 -1 17 -7 17 -16 0 -13 38 3 47 12 6 13 17 6
48 -6 25 -5 44 0 49 15 15 12 46 -5 46 -8 0 -15 4 -15 9 0 5 -3 17 -7 27 -5
13 -3 15 7 9 8 -5 18 -1 27 11 11 15 15 16 22 5 5 -8 16 -11 26 -8 9 4 13 11
10 17 -4 6 -10 8 -15 5 -4 -3 -19 0 -32 5 -23 10 -22 10 4 7 15 -2 33 0 40 4
7 5 16 9 19 9 3 0 6 -177 6 -392z m-5554 -1339 c1 -284 -1 -521 -5 -525 -5 -4
-16 0 -26 9 -20 19 -37 23 -27 7 3 -5 2 -10 -4 -10 -5 0 -23 24 -40 54 -17 29
-38 59 -46 66 -11 9 -15 34 -15 96 0 83 0 84 -25 84 -18 0 -25 5 -25 20 0 16
-7 20 -30 20 -25 0 -30 -4 -30 -25 0 -20 5 -25 25 -25 24 0 25 -2 25 -77 l0
-76 -182 6 c-99 4 -232 7 -295 7 l-113 0 0 69 c0 65 2 70 23 73 14 2 23 11 25
26 2 14 10 22 23 22 16 0 19 7 19 50 0 47 2 50 25 50 20 0 25 5 25 25 0 23 3
25 50 25 47 0 50 2 50 25 0 23 4 25 44 25 39 0 45 -3 48 -22 3 -20 10 -23 56
-26 50 -3 52 -2 52 22 0 21 -5 25 -32 28 l-33 3 -2 74 c-3 75 -13 96 -42 86
-10 -4 -11 -2 -3 8 8 10 6 16 -10 26 -16 10 -18 15 -8 21 11 7 11 12 2 22 -6
8 -12 30 -13 49 -2 19 -7 40 -12 47 -7 8 -4 18 7 30 9 10 13 21 10 25 -3 3 4
16 16 29 12 13 31 35 42 51 l19 27 -23 9 c-18 7 -10 9 32 9 30 0 61 -5 69 -12
12 -9 13 -8 6 3 -6 11 -1 13 24 9 17 -2 31 0 31 5 0 5 8 6 18 1 21 -9 145 -11
152 -2 3 3 24 3 47 -1 34 -7 43 -5 48 8 20 47 26 -76 28 -550z m1426 513 c2
-15 4 -52 5 -82 0 -30 6 -58 11 -62 6 -5 5 -8 -2 -8 -9 0 -13 -16 -13 -45 0
-45 0 -45 -35 -45 -34 0 -35 1 -35 40 l0 40 -74 0 c-98 0 -106 4 -106 51 l0
39 -84 0 -85 0 -3 -42 c-2 -29 -8 -43 -18 -44 -8 -1 -45 -2 -82 -3 l-68 -1 0
-40 0 -40 85 0 85 0 0 40 0 40 85 0 85 0 0 -40 0 -40 84 0 85 0 3 -42 c3 -43
3 -43 46 -46 34 -3 42 -7 42 -23 0 -18 -10 -19 -345 -19 -338 0 -345 0 -345
20 0 17 -7 20 -40 20 l-40 0 0 -85 0 -85 39 0 c40 0 40 0 43 43 2 34 7 42 23
42 16 0 21 -8 23 -42 3 -35 7 -43 23 -43 16 0 19 7 19 46 l0 45 43 -3 c34 -2
42 -7 42 -23 0 -13 -8 -21 -22 -23 -15 -2 -23 -10 -23 -23 0 -12 -7 -19 -20
-19 -13 0 -20 -7 -20 -20 0 -18 7 -20 85 -20 78 0 85 2 85 20 0 14 7 20 21 20
12 0 23 8 26 20 3 11 14 20 24 20 12 0 19 -7 19 -20 0 -13 7 -20 20 -20 17 0
20 7 20 46 l0 45 43 -3 c34 -2 42 -7 42 -23 0 -13 -8 -21 -22 -23 -15 -2 -23
-10 -23 -23 0 -12 -7 -19 -20 -19 -13 0 -20 -7 -20 -20 0 -18 7 -20 85 -20 78
0 85 2 85 20 0 15 7 20 25 20 23 0 25 4 25 45 l0 45 40 0 40 0 0 -45 0 -45 45
0 45 0 0 -45 0 -45 40 0 40 0 0 -125 0 -125 -515 0 -515 0 0 125 0 125 45 0
45 0 0 45 c0 41 -2 45 -25 45 -22 0 -25 4 -26 38 -6 203 -9 267 -14 330 -3 40
-1 90 4 110 l10 37 386 -3 c243 -1 392 1 403 7 9 6 17 11 17 11 0 0 2 -12 4
-28z m1070 -22 c17 -19 31 -39 31 -44 0 -6 12 -27 26 -48 21 -30 24 -41 15
-52 -9 -11 -10 -20 -1 -35 12 -23 1 -28 -19 -8 -7 6 -12 8 -11 2 4 -19 -12
-55 -22 -49 -5 3 -9 -2 -8 -12 4 -36 0 -39 -55 -36 l-55 4 0 -31 c0 -31 1 -31
50 -31 49 0 50 -1 50 -30 0 -28 -3 -30 -35 -30 -31 0 -35 -3 -35 -25 0 -23 3
-25 50 -25 47 0 50 2 50 25 0 23 3 25 50 25 47 0 50 -1 50 -26 0 -25 2 -26 50
-22 49 3 50 2 50 -24 0 -23 4 -28 25 -28 24 0 25 -3 25 -55 0 -52 1 -55 25
-55 20 0 25 -5 25 -25 0 -21 5 -25 30 -25 l30 0 0 -85 0 -85 31 0 c27 0 31 3
26 22 -14 50 0 64 74 78 38 7 72 10 76 7 3 -4 -3 -7 -14 -7 -28 0 -93 -28 -93
-40 0 -13 12 -13 44 0 18 6 26 6 26 -1 0 -5 -13 -15 -30 -20 -22 -8 -30 -17
-30 -35 0 -13 -5 -24 -11 -24 -6 0 -24 -11 -41 -25 -41 -35 -58 -32 -58 8 l0
34 -112 6 c-62 4 -197 7 -300 7 l-188 0 0 80 c0 79 0 80 -25 80 -21 0 -25 -5
-25 -30 l0 -30 -80 0 -80 0 0 80 c0 73 2 80 20 80 15 0 20 7 20 25 0 20 -5 25
-25 25 -20 0 -25 -5 -25 -25 0 -14 -4 -25 -10 -25 -6 0 -11 65 -11 173 -2 156
-1 404 0 417 1 3 95 5 210 5 l209 0 31 -35z m511 -155 c0 -23 3 -25 50 -25 47
0 50 -2 50 -25 0 -20 5 -25 25 -25 24 0 25 -3 25 -55 0 -52 1 -55 25 -55 20 0
25 -5 25 -25 0 -21 5 -25 30 -25 l30 0 0 -75 0 -75 -184 0 c-199 0 -246 5
-246 26 0 8 -10 14 -25 14 -21 0 -25 5 -25 30 0 25 -4 30 -25 30 -20 0 -25 5
-25 25 0 14 -4 25 -10 25 -5 0 -10 11 -10 25 0 20 5 25 25 25 24 0 25 3 25 55
0 52 1 55 25 55 20 0 25 5 25 24 0 23 5 25 48 28 40 3 47 6 50 26 3 19 9 22
48 22 40 0 44 -2 44 -25z m3240 -110 c0 -24 3 -25 55 -25 54 0 55 0 55 -30 0
-25 4 -30 25 -30 24 0 25 -3 25 -60 0 -57 1 -60 25 -60 20 0 25 -5 25 -25 0
-21 5 -25 30 -25 l30 0 0 -87 0 -88 -302 3 c-167 2 -309 5 -315 7 -9 3 -13 29
-13 84 0 79 0 80 28 83 19 2 28 9 30 26 2 14 10 22 23 22 17 0 19 7 19 59 0
53 -2 60 -21 63 l-21 3 21 19 c21 19 21 19 21 -2 0 -17 6 -22 25 -22 20 0 25
5 25 24 0 21 6 24 55 31 50 6 55 9 55 31 0 22 4 24 50 24 47 0 50 -2 50 -25z
m-9660 -20 c0 -24 3 -25 55 -25 52 0 55 -1 55 -25 0 -20 5 -25 25 -25 24 0 25
-3 25 -55 0 -54 0 -55 30 -55 25 0 30 -4 30 -25 0 -20 5 -25 25 -25 25 0 25
-1 25 -80 l0 -80 -319 0 c-176 0 -321 -3 -324 -7 -2 -5 -2 -2 0 5 1 8 3 47 3
88 l0 74 30 0 c25 0 30 4 30 25 0 20 5 25 25 25 24 0 25 3 25 55 0 52 1 55 25
55 20 0 25 5 25 25 0 24 3 25 55 25 52 0 55 1 55 25 0 23 3 25 50 25 47 0 50
-2 50 -25z m538 -52 c3 -19 11 -22 50 -25 40 -3 47 -6 50 -25 2 -14 11 -23 25
-25 18 -2 23 -11 27 -53 4 -42 8 -50 28 -53 16 -3 22 -10 22 -28 0 -19 5 -24
25 -24 23 0 25 -3 25 -50 0 -27 -4 -50 -9 -50 -5 0 -7 -9 -4 -20 5 -20 0 -20
-246 -20 -216 0 -251 2 -251 15 0 8 9 15 20 15 18 0 20 7 20 80 0 64 -3 80
-15 80 -11 0 -15 12 -15 49 0 44 3 50 23 53 14 2 23 11 25 25 3 19 11 22 50
25 38 2 48 7 51 23 5 28 20 36 61 33 27 -2 36 -8 38 -25z m6327 -62 c3 -6 17
-6 35 -1 16 5 29 5 28 2 -1 -4 4 -18 12 -32 7 -14 15 -50 16 -80 1 -30 7 -68
13 -83 6 -16 11 -30 11 -32 0 -2 -18 2 -40 10 -32 11 -47 12 -68 3 -25 -11
-20 -12 51 -21 43 -5 81 -6 84 -3 4 3 -2 15 -11 25 -17 18 -42 158 -31 169 20
21 115 -152 114 -208 0 -15 -9 0 -23 40 -28 81 -53 130 -67 130 -11 0 -5 -28
16 -70 7 -14 15 -39 18 -57 5 -26 2 -35 -15 -47 -12 -8 -26 -12 -32 -9 -15 10
-46 11 -46 2 0 -4 16 -10 35 -13 24 -5 33 -11 28 -21 -4 -12 3 -14 36 -10 39
5 40 4 32 -17 -5 -13 -15 -22 -22 -20 -7 2 -35 3 -63 3 -28 0 -60 3 -70 6 -17
5 -16 7 10 19 l29 14 -30 -5 c-16 -3 -35 -6 -42 -7 -7 -1 -22 -21 -33 -45 -21
-44 -36 -54 -46 -28 -4 8 -13 15 -21 15 -20 0 -10 41 19 81 34 45 14 45 -27 0
-21 -23 -45 -41 -54 -41 -14 0 -14 2 -1 10 22 15 -7 32 -32 19 -32 -17 -41 1
-13 28 14 15 28 37 31 49 4 14 11 21 17 17 6 -4 8 0 4 10 -3 9 -2 19 3 22 5 3
15 25 21 48 11 39 13 40 19 17 6 -23 8 -22 19 18 8 30 17 42 26 38 9 -3 18 7
25 30 11 34 24 43 35 25z m-7331 -70 c35 -14 24 -64 -13 -54 -15 4 -18 0 -14
-21 3 -14 8 -24 12 -22 15 10 32 -13 52 -70 11 -32 27 -62 34 -66 7 -4 16 -19
19 -34 4 -14 18 -44 33 -67 32 -53 30 -50 42 -43 6 4 -2 25 -20 51 -17 25 -29
51 -26 58 2 6 11 -1 19 -18 22 -42 80 -99 116 -114 37 -16 32 -41 -8 -41 -16
0 -30 -5 -32 -11 -6 -17 -56 28 -84 77 -29 48 -41 53 -24 10 13 -34 13 -93 1
-101 -11 -6 -29 23 -41 66 -5 18 -5 29 1 29 5 0 3 12 -5 28 -7 15 -17 46 -21
70 -13 81 -18 32 -5 -55 16 -114 69 -273 131 -396 27 -54 49 -103 49 -109 0
-50 -138 215 -185 357 -15 44 -33 107 -40 140 l-13 60 -1 -85 c0 -92 -7 -124
-38 -183 l-21 -37 -6 42 c-4 24 -16 54 -27 68 -18 22 -20 22 -15 4 6 -19 2
-20 -65 -22 -58 -1 -70 2 -65 14 4 11 -2 14 -22 12 -33 -2 -52 8 -52 28 0 8
-9 14 -20 14 -14 0 -21 9 -26 35 -3 19 -10 35 -15 35 -15 0 -10 -44 7 -69 16
-22 15 -23 -2 -19 -19 4 -54 -30 -54 -51 0 -6 -4 -11 -10 -11 -5 0 -10 6 -10
13 0 18 28 108 38 121 4 6 14 24 21 41 l13 30 -22 -20 c-12 -11 -40 -50 -62
-88 -23 -37 -43 -65 -46 -63 -9 10 111 237 130 244 4 2 8 9 8 15 0 22 73 118
99 131 14 8 59 22 100 32 57 15 75 16 78 7 3 -7 19 -12 36 -12 31 2 31 2 4 6
-32 5 -47 31 -26 44 18 11 62 11 93 0z m8212 -53 c4 -7 3 -8 -4 -4 -7 4 -12 3
-12 -3 0 -5 6 -12 13 -14 6 -3 2 -6 -9 -6 -12 -1 -28 -9 -35 -18 -12 -15 -12
-16 6 -9 41 16 50 12 53 -24 7 -85 11 -118 21 -163 9 -40 8 -54 -9 -95 l-20
-47 6 52 c5 45 3 53 -15 63 -14 7 -21 7 -21 0 0 -5 5 -10 10 -10 16 0 12 -30
-12 -97 -17 -47 -28 -63 -46 -68 -18 -4 -22 -10 -17 -25 5 -16 2 -20 -19 -20
-14 0 -28 5 -31 10 -10 16 -25 1 -25 -25 0 -29 -10 -55 -20 -55 -5 0 -6 24 -3
54 3 31 1 61 -5 72 -9 15 -12 7 -12 -41 0 -33 -7 -71 -15 -85 -13 -23 -14 -20
-8 40 8 94 -8 142 -68 202 -54 54 -59 63 -28 55 16 -4 18 -3 8 9 -14 17 -30
18 -53 1 -16 -12 -13 -16 28 -45 24 -18 55 -48 67 -68 20 -33 21 -37 6 -46
-13 -7 -15 -13 -7 -28 12 -23 12 -88 -1 -115 -7 -15 -8 -11 -5 20 5 49 -5 87
-23 93 -9 3 -11 0 -6 -7 9 -16 -3 -81 -15 -81 -6 0 -10 18 -10 40 0 22 -2 40
-4 40 -2 0 -11 3 -20 6 -13 5 -15 -3 -9 -59 4 -43 2 -66 -6 -71 -7 -5 -11 8
-11 41 0 59 -13 84 -32 64 -10 -11 -10 -14 0 -18 6 -3 12 -9 12 -14 0 -6 -4
-7 -10 -4 -5 3 -10 -3 -10 -14 0 -11 -6 -26 -13 -33 -8 -7 -16 -20 -20 -28 -3
-9 -6 -2 -7 15 -1 26 -3 24 -14 -18 -14 -52 -22 -64 -33 -52 -5 4 -2 10 5 12
26 10 0 21 -37 16 -33 -5 -44 -1 -66 21 -31 31 -30 31 -39 -7 -5 -22 -4 -27 6
-21 7 4 6 -1 -3 -10 -20 -21 -69 -12 -70 13 0 10 -2 11 -6 4 -7 -19 -23 -16
-23 5 -1 16 -2 15 -15 -2 -8 -10 -24 -20 -37 -22 -13 -2 -33 -6 -45 -10 -20
-6 -23 -3 -23 25 0 30 -13 41 -25 22 -3 -5 -31 -19 -61 -31 -48 -17 -62 -19
-91 -9 -23 7 -33 16 -29 25 3 8 -1 14 -9 14 -9 0 -15 -10 -15 -22 -1 -22 -1
-23 -15 -4 -18 24 -21 56 -4 39 12 -12 39 -7 39 8 0 6 -20 8 -45 7 -45 -3 -45
-4 -40 -33 5 -27 5 -28 -8 -12 -11 13 -22 15 -46 11 l-31 -7 14 28 c13 24 21
28 68 29 63 3 148 38 148 61 0 9 -4 13 -10 10 -5 -3 -10 -1 -10 6 0 6 -8 9
-19 6 -21 -5 -54 10 -46 23 6 9 68 -3 126 -27 28 -11 45 -26 54 -46 l13 -30
13 24 c15 28 19 59 8 59 -4 0 -9 -5 -11 -11 -6 -18 -47 11 -50 35 -2 11 -8 21
-15 23 -7 3 -10 -4 -6 -19 l5 -23 -21 24 c-12 13 -21 18 -21 12 0 -6 -5 -11
-11 -11 -8 0 -10 15 -6 45 5 52 -2 51 -20 -3 l-13 -37 5 39 c2 21 12 48 22 59
18 19 18 20 -5 8 -13 -7 -28 -23 -34 -37 -12 -26 -24 -31 -31 -11 -3 9 -7 9
-18 0 -11 -8 -27 -9 -63 -1 -42 9 -47 13 -43 31 3 12 9 39 12 59 9 48 36 73
63 59 11 -6 34 -8 51 -5 26 5 32 2 49 -25 12 -21 22 -27 29 -20 7 7 14 5 23
-6 7 -8 19 -15 26 -15 8 0 14 -4 14 -10 0 -5 11 -10 24 -10 13 0 38 -8 54 -17
25 -15 34 -15 54 -5 16 9 36 10 62 5 36 -8 41 -13 54 -53 8 -25 16 -46 17 -48
2 -2 20 4 40 12 20 9 50 17 66 18 18 1 28 7 25 14 -5 14 59 68 101 86 34 14
83 57 83 73 0 14 47 58 78 74 26 14 31 -3 5 -18 -10 -5 -15 -12 -11 -16 3 -4
26 13 50 37 23 24 68 55 98 70 38 19 48 28 33 28 -31 0 -29 14 5 31 60 30 106
37 118 17z m79 -31 c-8 -42 10 -113 38 -147 19 -23 19 -19 1 25 -4 10 0 15 10
15 9 0 16 -8 16 -20 0 -19 7 -20 100 -20 55 0 100 -3 100 -7 -1 -14 -37 -113
-44 -120 -12 -12 -6 -43 9 -43 12 0 15 -10 11 -44 -4 -42 -51 -146 -67 -146
-4 0 8 28 27 63 33 61 41 87 27 87 -15 0 -93 -146 -93 -174 0 -18 -75 -95 -92
-96 -4 0 5 19 21 43 53 78 141 225 141 233 0 4 -12 -4 -27 -18 -43 -40 -150
-105 -209 -128 -61 -22 -126 -28 -107 -9 7 7 23 13 36 14 35 4 98 36 91 46 -8
13 55 48 76 42 10 -3 20 0 24 5 8 13 -65 8 -91 -7 -30 -16 -39 -14 -39 8 0 17
10 21 63 27 79 8 83 20 5 16 l-57 -4 3 47 c4 42 -10 214 -24 302 -5 28 -2 32
23 36 15 2 29 5 31 6 2 0 0 -14 -3 -32z m-2460 -71 c-4 -24 -8 -60 -9 -79 -1
-32 0 -34 21 -24 13 6 24 14 24 19 1 4 2 13 3 20 2 25 22 16 20 -9 -1 -16 3
-33 8 -40 5 -7 7 -16 4 -22 -3 -5 0 -11 6 -14 10 -3 8 -10 -6 -25 -19 -22 -16
-72 4 -72 15 0 12 -34 -5 -56 -11 -14 -14 -15 -15 -4 0 13 -1 13 -10 0 -9 -13
-10 -13 -11 0 -1 8 -1 21 0 28 1 6 -10 17 -24 22 -14 5 -25 17 -25 27 0 10 -7
27 -15 37 -20 27 -19 107 2 178 21 68 37 77 28 14z m-2905 -11 c0 -21 5 -25
30 -25 25 0 30 4 30 25 0 23 3 25 50 25 38 0 50 -4 50 -15 0 -8 5 -15 10 -15
6 0 10 -7 10 -15 0 -8 -9 -15 -20 -15 -13 0 -20 -7 -20 -19 0 -14 -8 -21 -27
-23 -24 -2 -28 -8 -28 -33 l-1 -30 -119 0 c-117 0 -120 1 -123 23 -2 12 -9 22
-17 22 -7 0 -20 13 -28 29 -13 26 -13 30 4 45 11 9 24 16 29 16 6 0 10 7 10
15 0 12 16 15 80 15 79 0 80 0 80 -25z m-350 -30 c0 -23 3 -25 50 -25 47 0 50
-2 50 -25 0 -18 5 -25 20 -25 17 0 20 -7 20 -40 0 -36 3 -40 25 -40 20 0 25
-5 25 -25 0 -20 5 -25 25 -25 24 0 25 -2 25 -65 l0 -65 -153 0 c-85 0 -215 -3
-290 -7 l-137 -6 0 71 c0 70 1 72 24 72 18 0 25 6 28 23 2 14 11 23 26 25 19
3 22 9 22 48 0 40 2 44 25 44 18 0 25 5 25 20 0 17 7 20 50 20 47 0 50 2 50
25 0 23 4 25 45 25 41 0 45 -2 45 -25z m-440 -10 c62 -9 111 -25 93 -32 -6 -2
-42 0 -79 5 l-68 9 -33 -33 c-21 -21 -31 -39 -27 -49 4 -10 11 -12 18 -7 16
13 147 14 162 1 7 -6 17 -8 22 -6 4 3 14 2 22 -3 12 -7 12 -12 2 -22 -6 -6
-12 -21 -12 -31 0 -15 -8 -11 -40 22 -22 22 -45 41 -51 41 -6 0 2 -14 19 -31
28 -29 29 -34 25 -97 -5 -79 -9 -92 -23 -92 -6 0 -10 6 -8 13 4 21 -12 86 -23
93 -7 4 -8 -10 -4 -42 l7 -49 -31 29 -30 29 11 -31 c17 -43 5 -49 -35 -18 -49
37 -59 32 -14 -9 38 -35 48 -65 22 -65 -24 0 -18 -44 8 -55 30 -14 29 -53 -3
-76 -15 -11 -46 -20 -78 -21 -51 -3 -55 -1 -80 31 -15 19 -21 32 -14 27 16 -9
15 -6 -4 33 -21 43 -28 98 -20 165 6 48 13 61 49 96 23 22 52 43 65 46 33 9
27 27 -7 19 -29 -6 -71 17 -71 38 0 5 -14 20 -30 34 -17 14 -28 28 -26 31 19
18 176 22 286 7z m3810 -69 c0 -26 21 -36 78 -36 17 0 32 -5 32 -11 0 -7 11
-9 30 -5 22 4 30 2 30 -9 0 -7 10 -15 22 -17 18 -2 22 -10 24 -45 2 -35 -1
-43 -15 -43 -10 0 -26 -9 -36 -20 -18 -20 -18 -21 5 -45 13 -14 32 -25 42 -25
10 0 18 -3 18 -7 1 -22 18 -34 36 -26 11 6 33 16 49 25 17 8 29 22 29 31 -1
12 6 17 24 17 24 0 25 1 11 16 -15 14 -14 18 4 38 25 29 53 23 62 -12 l7 -27
10 25 c11 30 8 27 40 35 24 6 26 5 22 -17 -5 -22 -5 -22 9 -5 10 12 17 14 22
8 3 -6 17 -9 30 -7 20 4 24 -1 30 -31 4 -21 2 -40 -5 -48 -7 -8 -10 -20 -7
-27 3 -8 9 -2 16 15 6 15 15 27 21 27 5 0 19 19 31 41 l21 42 17 -29 c35 -57
88 -77 110 -42 10 17 15 18 21 7 6 -8 3 -20 -6 -30 -11 -12 -12 -19 -4 -24 27
-17 -61 -70 -97 -59 -16 5 -16 4 1 -10 27 -22 52 -20 77 5 29 29 32 20 13 -37
-21 -60 -49 -94 -83 -95 -22 -1 -19 -3 13 -13 31 -10 36 -14 22 -19 -10 -4
-28 -7 -41 -7 -13 0 -27 -5 -30 -10 -4 -7 -13 -6 -26 1 -12 6 -18 13 -15 16 3
3 -8 21 -24 40 -17 18 -30 44 -30 56 0 12 -5 29 -10 37 -8 13 -10 12 -10 -3 0
-24 48 -138 68 -159 34 -39 182 -10 214 41 10 16 23 21 60 21 70 0 106 -20 58
-33 -33 -8 -23 -25 19 -32 33 -5 42 -13 57 -43 9 -20 22 -40 28 -45 6 -4 -14
-5 -44 -2 -39 4 -49 2 -35 -4 11 -5 30 -10 41 -10 29 -1 74 -38 74 -62 0 -19
5 -21 85 -35 l40 -7 -38 -8 c-24 -6 -46 -5 -57 1 -10 6 -26 10 -35 10 -19 0
-45 -23 -45 -40 0 -6 -12 -10 -27 -8 -20 2 -29 9 -31 26 -2 12 -7 22 -12 22
-12 0 -20 -39 -20 -102 0 -53 -2 -58 -22 -60 -13 -1 -32 -2 -43 -3 -36 -4 -75
-17 -75 -26 0 -8 39 -14 63 -10 4 0 7 -4 7 -9 0 -8 -77 -9 -98 -1 -1 1 2 10 8
21 6 11 21 20 33 20 21 1 21 2 -5 21 -16 11 -29 30 -29 42 -1 17 -2 18 -6 5
-7 -26 -21 -22 -38 12 -18 35 -46 208 -39 241 5 21 4 22 -6 6 -6 -9 -12 -40
-12 -68 -1 -44 -4 -50 -20 -46 -23 6 -23 7 12 -53 34 -58 37 -78 13 -87 -11
-4 -28 7 -56 36 -21 23 -40 41 -42 39 -1 -2 0 -20 3 -41 3 -29 9 -38 28 -43
25 -6 31 -19 14 -29 -6 -4 -8 -11 -4 -16 3 -5 10 -7 15 -4 5 4 9 1 9 -5 0 -16
-42 -2 -62 21 -17 20 -34 26 -23 9 8 -14 -1 -13 -33 4 -15 7 -38 17 -52 20
l-25 7 25 -21 c17 -15 21 -23 13 -27 -7 -2 -13 -12 -13 -20 0 -10 -6 -13 -17
-9 -9 4 -36 10 -59 13 -34 4 -41 9 -37 24 3 10 0 33 -7 51 -7 18 -18 62 -26
98 l-13 65 1 -60 c1 -54 6 -88 24 -164 5 -21 3 -23 -22 -17 -16 4 -52 32 -81
63 -51 53 -64 53 -43 -1 15 -40 -7 -41 -32 -2 -26 40 -34 44 -41 19 -3 -10 -5
4 -6 30 0 27 -5 46 -10 42 -17 -10 0 -79 25 -98 23 -18 33 -47 16 -47 -4 0
-24 12 -45 26 -21 14 -45 23 -53 20 -11 -4 -14 4 -14 32 0 20 -4 54 -9 74 -7
30 -5 43 9 60 10 13 22 59 29 108 12 75 19 111 37 185 5 17 2 16 -15 -5 -11
-14 -21 -33 -21 -43 0 -10 -7 -25 -15 -33 -8 -8 -19 -23 -24 -32 -9 -15 -12
-15 -35 7 -22 21 -26 22 -27 8 -3 -33 -4 -37 -14 -37 -6 0 -10 37 -11 88 -1
97 16 159 61 218 24 32 23 48 -3 22 -9 -9 -13 -7 -18 5 -3 9 -12 17 -19 17 -9
0 -15 22 -20 68 -3 37 -9 79 -11 95 -3 16 -1 27 5 27 6 0 11 -11 11 -24z
m-4556 -18 c8 -18 17 -58 20 -88 6 -52 20 -90 29 -80 2 3 14 20 26 38 28 41
38 35 16 -8 -9 -18 -14 -34 -11 -37 3 -3 8 2 12 11 3 9 14 16 23 16 9 0 27 7
39 16 31 21 28 0 -4 -25 -14 -11 -23 -24 -20 -30 3 -5 0 -12 -6 -14 -7 -3 -1
-6 15 -6 23 -1 27 -5 27 -31 0 -16 -4 -30 -10 -30 -6 0 -6 -10 1 -27 14 -38 5
-55 -26 -47 -32 8 -32 -1 2 -30 24 -21 28 -32 31 -94 4 -66 2 -73 -29 -121
-36 -54 -53 -63 -62 -31 -5 19 26 63 52 71 7 3 15 31 18 69 6 57 5 63 -9 50
-8 -8 -18 -28 -22 -43 -3 -15 -11 -25 -16 -22 -5 3 -10 -5 -12 -17 -2 -13 -10
-24 -20 -26 -14 -3 -16 4 -12 40 l4 43 -11 -35 c-6 -19 -22 -47 -37 -62 -29
-31 -45 -29 -17 2 18 20 17 20 -8 20 -15 0 -27 1 -27 3 0 1 4 17 9 35 6 18 6
30 1 27 -5 -3 -11 5 -13 17 -2 13 -3 9 -1 -9 2 -24 -2 -32 -18 -36 -11 -3 -17
-10 -13 -16 3 -6 2 -11 -3 -11 -4 0 -6 27 -4 60 3 41 1 60 -7 60 -8 0 -7 10 4
30 20 38 19 40 -10 40 -21 0 -23 3 -17 23 4 12 7 46 6 75 -1 39 2 52 14 52 9
0 12 6 8 16 -3 8 -2 12 4 9 15 -9 12 1 -10 45 -24 47 -25 79 -5 106 13 16 16
17 25 4 8 -12 10 -11 10 8 0 17 6 22 26 22 19 0 28 -8 38 -32z m8806 7 c0 -7
-44 -99 -53 -110 -26 -33 -97 -147 -97 -155 0 -6 -4 -10 -10 -10 -13 0 -13 36
1 61 14 26 3 56 -22 62 -12 3 -18 10 -14 17 4 7 11 8 18 2 7 -5 22 -12 35 -15
19 -4 22 -2 17 11 -4 9 -9 41 -12 70 -3 44 -1 52 13 52 14 0 16 -8 10 -61 -6
-48 -4 -60 6 -57 7 3 16 27 19 54 3 27 7 41 7 32 2 -22 22 -24 22 -2 0 27 20
54 40 54 11 0 20 -2 20 -5z m-9463 -34 c17 -11 34 -28 37 -39 4 -10 18 -24 31
-30 14 -6 25 -16 25 -22 0 -6 -5 -8 -12 -4 -11 7 -9 -10 7 -48 13 -31 -9 -19
-26 14 -18 36 -42 50 -39 22 5 -41 0 -65 -11 -58 -9 5 -10 -3 -5 -30 9 -45 -2
-46 -48 -3 -24 21 -36 42 -38 62 -1 17 -5 35 -8 40 -4 6 -10 29 -13 53 -4 36
-3 43 10 38 11 -4 13 -2 9 9 -8 22 42 19 81 -4z m238 -43 c-2 -36 -8 -63 -14
-62 -6 1 -21 2 -34 3 -26 1 -73 44 -100 90 l-18 31 85 0 85 0 -4 -62z m225 27
c-16 -26 -20 -43 -15 -72 4 -22 3 -33 -2 -26 -6 8 -13 2 -22 -20 -33 -78 -44
-96 -52 -91 -14 8 -11 25 16 82 20 44 21 51 7 43 -19 -10 -41 -35 -60 -69 -10
-18 -10 -31 -1 -60 6 -20 13 -43 15 -50 2 -7 8 -11 13 -8 5 3 11 -3 14 -14 9
-33 30 -24 25 10 -3 17 -1 33 3 35 4 3 5 14 2 25 -3 11 0 20 6 20 11 0 16 -31
13 -77 -1 -25 15 -31 24 -9 3 8 0 41 -6 75 -7 42 -8 67 -1 79 8 13 10 7 11
-29 0 -32 5 -49 15 -53 17 -6 20 -52 5 -90 -7 -20 -17 -26 -39 -26 -16 0 -31
-4 -33 -8 -1 -5 -18 -12 -35 -15 -28 -6 -33 -4 -33 13 0 13 5 18 15 14 21 -9
18 5 -13 57 -21 36 -30 44 -38 35 -7 -8 -8 -19 -3 -28 4 -8 13 -36 19 -63 12
-53 0 -80 -31 -72 -13 3 -16 0 -12 -11 5 -11 2 -14 -9 -9 -11 4 -18 -1 -21
-14 -3 -10 -10 -19 -17 -19 -9 0 -10 20 -5 75 5 48 4 75 -3 75 -13 0 -24 -51
-26 -117 0 -29 -7 -58 -13 -64 -7 -7 -13 -31 -13 -53 0 -23 -4 -52 -8 -66 -5
-18 -8 -4 -12 50 -4 53 -9 74 -17 72 -7 -1 -13 6 -13 15 -1 17 -1 17 -14 0
-13 -16 -14 -16 -20 -1 -4 10 1 25 10 35 20 23 2 26 -20 4 -10 -10 -17 -12
-21 -4 -10 15 24 38 67 45 28 5 39 13 48 34 16 40 44 62 72 58 22 -3 23 0 24
63 2 75 24 132 60 156 14 9 24 25 24 38 0 35 44 65 97 65 l45 0 -22 -35z m529
-41 l8 -59 17 38 c14 32 43 51 48 30 6 -33 10 -72 14 -159 5 -84 3 -102 -11
-114 -18 -15 -32 -6 -18 12 9 13 10 185 0 194 -2 3 -11 -6 -19 -18 -15 -24
-23 -82 -10 -75 9 6 9 -89 0 -99 -5 -4 -8 -18 -8 -31 0 -28 -37 -113 -48 -113
-5 0 -17 7 -28 15 -10 8 -26 15 -34 15 -8 0 -28 11 -45 24 -25 21 -28 28 -19
43 7 11 9 26 4 34 -12 24 13 193 37 247 20 46 26 34 11 -22 -11 -40 -10 -51 4
-79 10 -17 22 -48 27 -67 10 -34 11 -33 7 14 -2 27 -8 51 -13 55 -17 10 -14
71 3 71 8 0 13 4 10 9 -3 5 1 26 8 47 12 32 15 34 15 14 0 -14 -6 -47 -13 -75
-12 -45 -11 -53 6 -87 14 -27 18 -47 13 -69 -5 -22 -4 -29 4 -25 6 4 11 16 11
27 0 10 5 19 10 19 6 0 10 -15 10 -32 0 -25 3 -29 10 -18 13 20 13 70 0 70 -5
0 -10 13 -10 29 0 16 -7 34 -16 42 -13 11 -14 9 -9 -17 6 -28 6 -28 -9 -10
-19 23 -21 43 -5 48 6 2 13 34 16 71 3 37 7 66 10 64 2 -2 7 -31 12 -63z
m8745 40 c9 -3 16 -18 17 -33 0 -14 4 -35 8 -46 5 -11 4 -30 0 -43 -5 -14 -5
-63 2 -118 10 -93 7 -134 -11 -134 -6 0 -12 10 -16 23 -3 12 -24 37 -46 55
-43 34 -64 36 -34 3 12 -13 14 -20 5 -23 -9 -3 -9 -9 0 -26 10 -19 9 -23 -9
-30 -20 -7 -19 -10 20 -52 38 -42 48 -60 32 -60 -4 0 -20 14 -35 30 -16 17
-36 30 -45 30 -12 0 -8 -8 13 -30 34 -36 17 -39 -34 -8 -20 13 -37 21 -38 18
-1 -3 -26 12 -56 32 -56 37 -112 58 -134 51 -7 -3 -13 0 -13 5 0 6 13 13 29
17 16 3 35 13 42 21 6 8 17 14 23 14 6 0 4 -5 -4 -11 -11 -7 -2 -8 30 -3 48 8
93 7 125 -2 17 -5 17 -4 -3 11 -27 19 -53 23 -97 12 l-30 -8 33 22 c17 11 32
23 32 26 0 6 -58 -2 -97 -13 -14 -4 -23 -2 -23 5 0 6 7 11 15 11 15 0 18 9 16
40 0 11 1 11 5 2 5 -10 9 -10 20 -1 17 14 19 32 2 24 -7 -4 -6 -1 2 7 8 7 21
24 28 38 7 14 22 31 32 38 17 10 18 9 14 -6 -4 -9 3 -3 15 13 22 31 26 50 14
58 -5 2 -2 2 4 1 7 -2 16 2 20 9 18 28 89 45 127 31z m-7271 -119 c27 -3 53
-7 58 -10 5 -3 6 1 3 9 -4 11 0 13 18 9 13 -3 28 -9 33 -13 22 -16 56 -18 62
-4 6 17 88 20 99 3 4 -8 9 -7 15 2 14 23 21 1 11 -33 -6 -18 -12 -49 -14 -68
-3 -30 0 -35 20 -38 21 -3 22 -7 16 -55 -3 -29 -7 -57 -9 -64 -2 -7 2 -10 11
-6 8 3 14 -1 14 -8 0 -8 3 -24 6 -36 5 -17 2 -23 -10 -23 -12 0 -15 -6 -10
-25 5 -21 3 -24 -12 -19 -13 4 -15 3 -7 -3 10 -7 9 -18 -4 -51 -28 -73 -37
-37 -36 143 1 91 -2 165 -7 165 -5 0 -17 3 -27 6 -15 6 -16 4 -5 -7 6 -7 12
-19 12 -26 0 -15 -36 -18 -43 -3 -3 6 -4 5 -3 -2 1 -7 14 -14 27 -16 23 -3 25
-8 27 -59 2 -49 -1 -60 -24 -85 -21 -21 -31 -25 -41 -17 -22 19 -16 -7 12 -51
19 -29 21 -38 9 -33 -13 5 -15 2 -9 -18 10 -33 12 -34 32 -18 16 13 17 12 4
-3 -18 -23 -41 -23 -41 0 0 11 -10 27 -21 38 -12 10 -38 54 -57 97 -28 62 -37
75 -45 62 -8 -15 -10 -15 -28 1 -25 22 -24 37 1 29 15 -5 20 -2 22 12 1 10 2
25 4 33 1 8 2 23 3 34 1 14 7 17 31 14 40 -6 48 18 8 26 -16 3 -34 4 -38 1 -4
-3 -11 3 -15 12 -3 10 -2 19 3 21 6 2 8 12 5 22 -8 28 -89 28 -137 -1 -47 -27
-46 -45 3 -53 34 -5 71 -30 60 -40 -2 -2 -42 3 -89 11 -83 14 -130 33 -130 53
0 6 -7 10 -15 10 -18 0 -19 9 -2 32 14 18 65 34 115 37 7 1 10 6 6 13 -5 8 5
9 37 4 24 -3 66 -8 92 -11z m1473 9 c17 -4 23 -19 33 -70 14 -77 5 -168 -15
-160 -16 6 -20 -29 -4 -39 6 -3 10 -31 10 -61 0 -38 -3 -53 -11 -48 -7 4 -9
21 -5 46 5 33 4 39 -8 35 -10 -4 -17 3 -21 23 -4 17 -11 33 -17 37 -8 4 -9 0
-3 -13 4 -10 10 -42 12 -69 6 -64 -8 -80 -56 -64 -18 6 -35 9 -38 6 -3 -4 2
-24 11 -47 20 -50 20 -78 1 -145 -9 -30 -15 -64 -14 -77 4 -47 -1 -99 -10 -94
-4 3 -6 16 -4 29 6 28 -20 118 -41 149 -15 22 -16 22 -16 2 0 -11 4 -24 9 -30
15 -14 24 -134 10 -134 -6 0 -9 12 -7 27 2 15 -2 28 -9 30 -13 5 -18 -14 -14
-56 2 -21 0 -23 -13 -12 -18 15 -22 1 -5 -16 7 -7 4 -12 -10 -16 -13 -3 -26 1
-34 12 -6 10 -25 26 -42 36 l-30 19 29 -32 c36 -39 17 -42 -32 -5 l-35 26 7
-28 c5 -19 2 -33 -10 -46 -23 -25 -34 -24 -35 4 0 21 -1 21 -10 -3 -10 -24
-11 -24 -21 -5 -6 11 -24 35 -39 54 -16 19 -26 38 -23 43 8 13 56 9 89 -7 l30
-15 -30 25 c-23 19 -37 25 -60 21 l-30 -6 25 15 c14 8 20 14 14 15 -5 0 -19
-7 -30 -15 -30 -23 -51 -19 -28 6 15 17 16 22 4 29 -20 12 -28 5 -41 -41 -8
-25 -22 -45 -38 -54 -14 -8 -20 -14 -12 -15 8 0 25 10 37 21 15 14 29 19 41
15 15 -6 12 -12 -22 -41 -24 -20 -43 -29 -46 -23 -5 7 -17 7 -39 -1 -41 -14
-70 -14 -70 -1 0 6 9 10 20 10 11 0 20 6 20 14 0 15 52 46 77 46 15 0 17 14 3
39 -5 10 -7 34 -4 53 5 28 15 41 49 63 24 15 46 37 49 49 9 37 64 104 106 131
22 14 40 31 40 38 0 6 17 35 38 62 27 35 44 75 60 135 35 130 35 130 145 130
50 0 101 -3 113 -6z m205 -15 c33 -12 59 -25 59 -30 0 -4 7 -15 17 -24 15 -15
18 -15 38 9 12 15 38 31 56 38 19 6 38 16 42 22 11 16 0 -82 -14 -124 -7 -19
-17 -41 -23 -49 -9 -12 -8 -12 11 -1 20 13 37 68 45 149 2 14 8 26 14 28 19 6
-4 -158 -37 -256 -28 -83 -30 -98 -20 -128 12 -31 10 -36 -26 -88 -56 -80
-101 -100 -225 -99 -54 0 -98 -3 -98 -8 0 -4 12 -8 26 -8 37 0 164 -32 164
-41 0 -10 -157 -69 -185 -69 -14 0 -35 14 -52 34 -17 18 -36 36 -44 38 -14 5
13 4 151 -7 70 -6 61 4 -25 25 -59 15 -64 15 -90 5 -19 -8 -18 -6 3 17 12 13
22 33 22 44 1 17 2 17 13 3 15 -20 57 -8 57 17 0 9 60 75 134 148 73 72 139
142 146 156 7 14 -12 -2 -41 -34 -30 -33 -65 -69 -78 -80 -14 -12 -38 -33 -55
-49 -22 -20 -32 -24 -37 -15 -6 9 -17 2 -41 -24 -18 -20 -43 -39 -55 -43 -22
-6 -31 4 -17 18 11 11 16 310 5 355 -9 42 -8 44 12 38 28 -7 42 3 51 32 9 27
24 28 97 1z m556 4 c8 -10 23 -38 34 -63 11 -25 40 -63 64 -85 55 -51 64 -81
34 -120 -21 -28 -21 -29 -2 -12 26 23 37 9 29 -37 -5 -24 -16 -38 -45 -54 -21
-12 -44 -29 -51 -37 -7 -8 -23 -15 -35 -15 -14 0 -32 -12 -44 -27 -15 -20 -19
-22 -14 -8 3 11 25 43 47 70 22 28 29 40 15 28 -28 -26 -39 -29 -39 -11 0 6
21 31 48 56 l47 44 -45 -22 c-25 -12 -53 -29 -62 -37 -19 -17 -38 -10 -38 13
0 41 65 127 110 147 l25 11 -29 4 c-22 3 -37 -4 -67 -34 -47 -46 -52 -28 -8
28 17 21 29 42 25 45 -3 3 -8 -2 -12 -11 -10 -26 -34 -19 -35 12 -1 15 -1 31
0 35 4 26 3 54 -4 71 -7 16 -5 18 9 13 10 -4 15 -3 11 3 -11 17 17 11 32 -7z
m-1830 -63 c13 -223 1 -299 -63 -392 -41 -59 -41 -52 1 78 9 29 16 78 16 110
-1 52 6 264 8 272 1 2 9 2 18 0 13 -2 17 -17 20 -68z m122 50 c13 -12 21 -26
17 -35 -3 -9 0 -15 9 -15 17 0 65 -78 65 -106 0 -10 -7 -32 -16 -49 -9 -16
-23 -41 -30 -55 -8 -14 -23 -36 -34 -50 -19 -25 -20 -25 -20 -3 0 12 4 24 9
28 5 3 9 51 8 106 -2 80 -5 103 -18 112 -15 11 -32 87 -19 87 3 -1 16 -10 29
-20z m1519 -208 c-6 -90 -8 -96 -54 -164 -58 -85 -218 -262 -242 -267 -16 -3
-16 -2 -1 15 201 235 259 310 269 345 5 16 9 75 9 131 0 56 4 118 8 137 7 32
9 29 13 -34 3 -38 2 -112 -2 -163z m-5553 187 c22 -6 49 -18 60 -26 19 -15 19
-15 -5 -10 -23 6 -22 3 13 -29 47 -43 49 -75 13 -163 -14 -36 -26 -69 -26 -74
0 -5 -10 -17 -22 -28 -22 -18 -22 -18 -3 -19 19 -1 19 -1 -2 -19 -27 -22 -29
-31 -8 -31 8 0 15 -5 15 -11 0 -11 -36 -9 -75 6 -11 4 -4 -4 15 -16 46 -31 49
-35 39 -76 -8 -36 -3 -63 11 -63 15 0 17 -59 3 -65 -8 -2 -12 -9 -9 -14 9 -15
-17 -29 -59 -33 l-40 -3 34 -22 c18 -12 40 -19 47 -16 8 3 14 0 14 -7 0 -6 -4
-9 -9 -5 -5 3 -12 1 -16 -5 -3 -5 0 -10 7 -11 7 0 24 -14 38 -32 13 -18 17
-26 9 -19 -17 13 -49 7 -49 -9 0 -5 9 -9 19 -9 11 0 23 -4 26 -10 4 -6 -6 -10
-22 -10 -16 0 -39 -7 -51 -16 -12 -8 -27 -12 -34 -8 -8 5 -6 10 8 16 15 7 14
7 -6 3 -22 -4 -28 1 -40 28 -7 18 -15 36 -18 41 -2 4 5 5 17 1 27 -8 28 11 1
25 -23 13 -56 70 -40 70 6 0 20 -5 31 -11 18 -9 19 -8 11 8 -6 10 -22 29 -36
42 -34 32 -72 151 -54 169 7 7 6 23 -2 48 -10 29 -10 39 -1 42 8 3 9 8 2 15
-16 21 -18 142 -1 132 6 -4 10 7 10 27 l-1 33 -21 -40 c-19 -36 -20 -51 -16
-175 4 -104 2 -138 -8 -148 -17 -16 -16 -16 -50 13 -31 27 -34 39 -38 152 -1
40 -5 75 -9 79 -10 10 -9 26 1 20 4 -2 6 11 4 31 -4 32 1 40 54 89 69 65 106
73 99 22 -5 -29 -4 -30 4 -8 5 14 12 37 15 52 3 14 18 40 32 57 28 34 53 38
119 20z m2879 -147 c9 -32 27 -73 41 -91 l24 -34 23 39 c18 30 24 35 26 20 2
-10 -7 -30 -21 -44 -22 -22 -33 -24 -105 -24 -91 0 -121 12 -188 74 -37 35
-44 46 -44 79 l0 39 114 0 113 0 17 -58z m-204 -89 c42 -44 70 -69 152 -136
l28 -22 -25 -21 -24 -22 -56 60 c-31 33 -59 58 -61 55 -3 -3 12 -33 33 -68 34
-57 63 -113 63 -123 0 -2 -7 -6 -15 -9 -24 -10 -102 75 -115 124 -16 61 -21
71 -14 26 3 -26 2 -37 -5 -32 -7 4 -11 -5 -11 -24 0 -38 -12 -39 -39 -3 -11
15 -21 21 -21 15 0 -7 23 -38 50 -68 58 -64 63 -76 17 -41 -19 15 -39 26 -45
26 -12 0 -27 -38 -23 -58 3 -18 -29 -27 -40 -11 -6 9 -9 10 -9 2 0 -20 42 -43
80 -43 19 0 42 -5 50 -10 11 -7 6 -10 -20 -10 -25 0 -45 -10 -70 -31 -19 -17
-48 -38 -65 -47 -25 -13 -27 -17 -12 -20 11 -2 35 9 55 25 85 66 134 84 167
59 42 -32 93 -13 109 40 4 12 15 24 25 27 17 4 18 1 10 -27 -12 -42 -11 -138
1 -172 15 -38 5 -41 -16 -5 -12 20 -21 26 -25 19 -8 -13 -59 15 -59 32 0 6 -4
10 -10 10 -5 0 -10 -10 -10 -22 0 -27 -35 -88 -51 -88 -6 0 -13 9 -16 20 -6
21 -22 21 -154 5 -45 -6 -89 24 -89 60 0 13 -4 26 -8 29 -5 3 -8 15 -6 28 1
13 3 32 4 43 1 11 4 14 7 8 13 -35 21 -1 26 122 3 74 9 140 13 147 4 7 7 29 5
49 -5 72 55 169 123 200 l41 18 5 -44 c4 -34 15 -54 50 -92z m7041 110 c14
-14 0 -43 -25 -53 -17 -7 -14 -9 17 -9 20 -1 37 -5 37 -10 0 -5 3 -16 6 -25 4
-10 -1 -18 -12 -23 -11 -3 -30 -15 -43 -25 -13 -10 -27 -15 -32 -12 -5 3 -9 1
-9 -4 0 -16 -52 -34 -64 -22 -7 7 -5 10 7 10 9 0 17 5 17 10 0 6 -4 10 -8 10
-5 0 -13 16 -19 35 -9 29 -8 38 9 57 16 19 22 20 39 9 21 -12 42 -6 24 7 -6 4
-10 16 -10 26 0 12 -8 20 -24 23 -14 2 -27 6 -30 9 -10 11 109 -2 120 -13z
m-7544 -90 c-2 -120 7 -150 51 -171 26 -12 38 -25 40 -42 2 -14 11 -33 19 -42
10 -11 12 -18 5 -18 -7 0 -12 -4 -12 -10 0 -5 16 -10 35 -10 24 0 37 -6 45
-20 11 -21 4 -25 -29 -20 -12 1 -12 -1 -3 -13 16 -19 -5 -37 -45 -40 -23 -2
-28 2 -27 21 1 36 -38 25 -55 -16 -10 -21 -20 -31 -29 -27 -12 4 -13 3 -3 -9
7 -8 10 -19 7 -24 -3 -5 28 -8 72 -8 79 2 122 -6 122 -23 0 -5 -9 -9 -20 -8
-11 1 -20 5 -20 9 0 4 -7 8 -15 8 -8 0 -14 -6 -13 -12 2 -8 -13 -15 -37 -18
l-40 -5 38 -19 c35 -17 39 -17 50 -3 7 9 23 18 37 19 22 3 25 -1 28 -33 2 -29
-1 -38 -20 -47 l-23 -12 25 2 c15 2 41 -9 64 -27 34 -26 49 -30 134 -35 113
-8 174 -3 185 16 4 8 17 14 27 14 11 0 20 5 20 10 0 6 -11 10 -25 10 -16 0
-25 -6 -25 -15 0 -8 -4 -15 -10 -15 -16 0 -12 12 12 37 25 27 50 29 69 6 11
-13 11 -17 2 -20 -7 -3 -13 -9 -13 -15 0 -6 8 -7 18 -4 16 6 16 5 0 -8 -10 -7
-18 -17 -18 -21 0 -4 8 -4 18 0 18 7 31 10 107 20 28 4 76 15 107 26 l57 19
78 -26 c80 -26 156 -27 219 -4 23 9 24 8 24 -30 l0 -40 47 0 c48 0 55 7 12 13
-35 6 -37 35 -2 39 22 2 29 9 34 38 9 42 1 59 -17 35 -9 -12 -10 -23 -3 -36 8
-16 6 -19 -18 -17 -15 1 -34 11 -41 21 -12 16 -24 18 -95 13 -45 -3 -72 -2
-59 0 13 3 22 13 22 25 0 14 7 19 28 20 61 1 -14 18 -85 18 -59 1 -73 -2 -73
-14 0 -8 -7 -15 -15 -15 -8 0 -15 -5 -15 -10 0 -6 10 -9 23 -7 12 3 30 -4 41
-14 18 -17 18 -19 2 -19 -9 0 -32 6 -51 14 -18 8 -36 12 -39 9 -3 -3 -12 0
-20 6 -10 8 -16 9 -21 1 -9 -15 -35 -12 -35 5 0 8 5 15 10 15 6 0 10 6 10 13
0 39 56 63 85 36 5 -5 92 -9 193 -9 l185 0 34 -35 c19 -19 39 -35 44 -35 6 0
-3 12 -20 26 -24 19 -31 34 -31 60 0 24 5 34 15 34 8 0 15 -7 15 -15 0 -19 19
-19 45 -2 20 13 135 38 171 36 11 0 -6 -12 -37 -27 -31 -15 -63 -33 -73 -41
-27 -23 -20 -51 18 -66 19 -8 37 -24 41 -35 6 -18 8 -18 21 -5 9 8 32 15 53
15 20 0 42 5 48 11 12 12 130 15 164 4 27 -9 24 -25 -5 -25 -13 0 -26 -7 -30
-15 -3 -10 1 -15 14 -15 10 0 22 -5 26 -12 5 -8 -2 -9 -25 -5 -23 5 -31 3 -29
-5 6 -18 43 -26 124 -27 62 -1 75 2 100 24 16 14 41 25 57 25 30 0 35 11 12
30 -12 10 -15 10 -15 -4 0 -19 -36 -22 -42 -4 -3 9 -9 8 -22 -5 -10 -10 -31
-16 -49 -16 -24 1 -26 3 -9 6 33 7 27 23 -10 24 -28 0 -30 2 -13 9 11 5 33 9
48 9 16 1 47 12 70 25 27 16 66 27 110 32 67 7 67 7 65 -17 -2 -19 2 -24 19
-24 12 0 25 -4 29 -8 4 -4 -2 -7 -13 -7 -19 0 -51 -26 -42 -34 9 -9 55 -8 74
0 11 5 39 9 63 9 44 0 53 8 26 23 -9 5 -14 14 -10 21 10 16 20 14 50 -10 21
-17 24 -24 15 -35 -12 -15 -9 -17 14 -8 18 6 11 40 -9 48 -23 9 -16 21 20 38
35 17 275 31 568 32 132 1 168 -5 138 -24 -9 -6 50 -8 152 -6 92 2 168 1 170
-3 2 -5 18 -11 36 -14 29 -6 33 -4 28 11 -4 13 0 18 14 19 11 1 20 -2 20 -5 0
-4 9 -8 20 -9 15 -1 20 4 20 21 0 20 6 24 41 29 22 3 42 7 43 9 26 40 94 110
112 114 39 10 27 19 -25 19 -48 0 -50 -1 -60 -36 -6 -19 -22 -46 -35 -59 l-25
-23 19 39 c11 21 20 45 20 54 0 8 7 27 14 43 14 25 13 27 -4 27 -10 0 -30 -15
-43 -32 -32 -43 -77 -129 -77 -148 -1 -13 -2 -13 -10 0 -10 18 11 129 35 186
23 54 19 57 -21 16 -23 -24 -34 -30 -30 -18 7 20 7 20 -15 0 -25 -21 -21 -12
25 56 37 55 46 63 119 100 58 31 156 53 144 33 -4 -6 -21 -14 -39 -17 -18 -4
-42 -14 -53 -23 -19 -15 -19 -15 0 -9 65 23 203 12 234 -19 12 -12 7 -12 -45
0 -32 8 -75 14 -94 13 -19 0 -26 -2 -15 -5 11 -2 56 -16 100 -31 70 -23 76
-27 51 -32 -26 -4 -27 -6 -13 -19 10 -7 17 -19 17 -27 0 -15 -117 -77 -131
-68 -5 3 -8 2 -7 -3 4 -13 -93 -122 -114 -129 -15 -5 -17 -9 -7 -20 7 -8 20
-12 30 -9 11 4 19 2 19 -4 0 -6 11 -11 25 -11 14 0 25 -4 25 -10 0 -5 -9 -10
-20 -10 -13 0 -18 -5 -14 -15 7 -18 35 -20 52 -3 10 10 15 10 21 0 6 -10 10
-8 14 8 4 17 10 20 26 15 17 -5 20 -3 14 12 -10 29 -25 44 -39 39 -7 -3 -16 4
-19 14 -7 22 2 43 14 36 4 -3 23 8 42 24 39 33 26 41 -15 9 -24 -19 -26 -19
-26 -2 -1 10 -12 -2 -25 -29 -14 -26 -34 -52 -45 -58 -11 -6 -20 -8 -20 -5 0
2 20 36 44 73 58 91 81 97 175 46 117 -64 151 -86 151 -95 0 -15 -33 -10 -67
10 -31 19 -31 19 -36 0 -3 -11 0 -19 7 -19 7 0 27 -18 45 -40 17 -22 37 -40
43 -40 6 0 20 -7 30 -17 17 -15 18 -15 18 4 0 24 24 48 39 39 5 -4 13 -2 16 4
4 6 26 10 50 9 42 -3 44 -4 38 -30 l-5 -28 58 3 c33 2 64 4 69 6 6 1 17 2 25
0 11 -1 9 -4 -5 -10 -16 -6 -17 -9 -5 -13 8 -2 31 -9 51 -16 19 -6 54 -11 77
-11 22 0 43 -4 47 -10 3 -5 12 -7 20 -3 18 6 21 -42 3 -53 -17 -11 30 -26 55
-18 18 6 19 7 4 16 -19 10 -23 38 -6 38 5 0 8 4 4 9 -3 5 6 21 20 35 14 14 25
30 25 36 0 18 -20 11 -47 -16 -24 -24 -26 -24 -44 -8 -10 9 -27 14 -39 11 -14
-4 -20 0 -20 11 0 22 50 93 61 86 15 -9 10 -22 -11 -29 -11 -4 -18 -11 -14
-16 3 -6 13 -8 21 -4 9 3 24 -2 34 -11 24 -21 24 -11 2 24 -17 26 -17 26 0 13
15 -12 17 -11 17 3 0 17 12 17 103 3 29 -5 42 -25 15 -23 -13 0 -26 6 -30 11
-4 6 -8 -18 -8 -51 0 -77 7 -83 88 -75 7 0 12 15 12 32 0 27 2 30 15 19 12
-10 15 -10 15 1 0 9 3 10 8 4 18 -25 182 -48 182 -25 0 6 5 10 11 10 5 0 7 -4
4 -10 -4 -6 11 -10 39 -10 25 0 48 5 51 10 3 6 -3 10 -15 10 -17 0 -20 4 -15
21 6 19 4 21 -19 17 -15 -3 -31 0 -37 8 -9 11 -5 14 20 15 53 3 56 4 63 14 5
6 12 5 20 -3 9 -9 9 -12 -1 -12 -7 0 -10 -4 -7 -8 4 -7 44 -12 154 -16 18 -1
24 -8 28 -38 6 -33 10 -36 43 -41 45 -5 59 0 67 25 4 15 9 17 17 9 6 -6 22
-11 37 -10 l25 1 -25 11 c-47 22 -52 28 -39 43 15 18 39 18 39 -1 0 -8 5 -15
10 -15 6 0 10 7 10 15 0 10 10 15 28 15 19 0 23 -3 13 -9 -11 -7 -10 -11 6
-19 23 -13 85 -1 64 12 -9 6 -8 12 8 22 18 13 24 13 51 -1 41 -21 39 -45 -2
-46 -40 -1 -75 -13 -62 -22 12 -7 92 -2 101 7 3 3 7 16 9 29 1 12 3 25 3 30 1
4 10 7 21 7 13 0 20 -7 20 -20 0 -12 -7 -20 -17 -20 -38 0 6 -18 75 -29 39 -7
72 -17 72 -23 0 -6 -10 -8 -22 -4 -13 3 -32 9 -43 12 -16 4 -23 -2 -34 -28 -8
-18 -16 -36 -19 -40 -2 -5 8 -8 22 -8 14 0 30 8 35 19 9 16 16 17 63 9 72 -13
363 -4 408 12 19 8 43 24 53 36 9 12 31 26 48 29 22 5 28 10 18 15 -17 11 54
17 103 9 26 -4 38 -2 42 7 4 10 -5 14 -35 14 -22 0 -50 5 -61 11 -21 11 -21
12 -3 25 27 20 52 19 35 -1 -16 -19 3 -27 53 -23 20 2 35 0 34 -4 -3 -11 45
-58 60 -58 7 0 13 -4 13 -10 0 -5 -13 -10 -29 -10 -24 0 -28 3 -24 20 4 15 0
20 -16 20 -14 0 -19 -5 -15 -15 7 -16 4 -17 -68 -19 -47 -2 -87 -23 -60 -33 6
-3 12 -10 12 -17 0 -16 69 -14 127 4 30 9 52 10 81 3 27 -7 45 -7 58 0 39 22
314 26 314 5 0 -5 4 -7 9 -3 5 3 22 0 36 -7 23 -10 28 -10 37 5 5 10 13 15 18
12 5 -3 19 -1 30 5 29 15 59 3 66 -26 6 -23 10 -24 83 -24 92 1 162 15 178 37
12 15 14 15 31 0 13 -12 21 -14 29 -6 17 17 83 -8 83 -31 0 -15 -10 -19 -50
-22 -27 -1 -59 0 -72 3 -32 8 -48 0 -41 -18 4 -11 2 -14 -5 -9 -7 4 -12 1 -12
-8 0 -9 6 -16 13 -16 18 0 16 -72 -3 -87 -13 -11 -13 -12 4 -13 12 0 16 -5 12
-15 -10 -27 9 -16 52 30 23 25 47 45 52 45 6 0 10 14 10 30 0 34 -14 38 -49
14 -14 -10 -26 -13 -32 -7 -11 11 -2 43 12 43 4 0 5 -8 2 -17 -5 -15 -4 -16 8
-7 8 6 29 14 47 17 28 6 32 4 33 -16 0 -12 3 -179 5 -371 l4 -349 -37 7 c-21
3 -47 6 -58 6 -18 0 -20 6 -18 77 3 101 9 127 29 119 11 -4 14 -1 12 12 -2 9
-11 16 -21 16 -9 -1 -17 3 -17 8 0 6 11 8 24 4 16 -4 29 0 41 14 26 29 12 35
-35 16 -50 -20 -54 -20 -47 -2 4 10 1 13 -7 10 -9 -4 -12 -31 -10 -107 2 -56
5 -113 8 -126 8 -34 -7 -48 -46 -45 -18 2 -52 4 -75 5 -35 2 -39 4 -27 16 27
27 14 37 -14 10 -42 -40 -98 -38 -136 6 l-29 32 7 -32 c6 -25 4 -32 -11 -36
-17 -5 -273 -2 -283 3 -3 1 -8 2 -12 1 -4 0 -37 -2 -73 -3 -49 -2 -69 2 -75
12 -8 13 -10 12 -10 -3 0 -16 -25 -17 -414 -16 -228 1 -420 -2 -426 -6 -7 -4
-214 -9 -459 -11 -245 -2 -741 -6 -1101 -8 -360 -3 -1024 -8 -1475 -11 -451
-3 -840 -6 -865 -6 -25 -1 -211 -1 -415 0 -203 0 -482 0 -620 -1 -137 -1 -331
-1 -430 0 -258 2 -1576 2 -1665 -1 -41 -1 -282 -1 -535 0 -253 1 -517 2 -587
2 l-126 1 -11 31 c-17 49 -14 56 26 64 56 10 113 36 113 50 0 7 13 24 28 37
35 29 57 62 26 38 -10 -8 -34 -27 -52 -42 -18 -15 -52 -38 -75 -49 l-42 -22
25 26 c14 15 30 27 36 27 13 0 103 80 90 80 -4 0 -40 -24 -80 -54 -39 -29 -85
-62 -103 -73 -30 -18 -31 -21 -19 -44 18 -35 26 -83 16 -98 -4 -8 -22 -15 -39
-16 -33 -3 -48 -11 -39 -20 3 -3 17 -1 31 4 25 10 26 9 33 -47 10 -78 -25
-287 -48 -287 -3 0 -22 20 -43 45 l-37 45 5 134 c4 111 3 138 -10 158 -19 29
-13 119 11 155 13 21 14 34 6 79 -20 103 -6 471 20 519 6 10 22 21 37 24 135
26 155 28 166 17 6 -6 20 -11 31 -10 21 0 21 0 1 8 -11 5 -29 19 -40 31 -19
22 -19 22 5 41 27 20 126 27 158 11 10 -5 61 -4 117 3 137 16 222 13 239 -10
12 -16 14 -16 41 9 15 14 32 26 37 26 5 0 6 5 2 11 -5 9 4 10 32 4 21 -4 41
-9 44 -11 8 -9 -25 -24 -53 -24 -41 0 -66 -16 -60 -39 3 -12 -3 -24 -18 -35
-22 -15 -22 -16 -4 -16 11 1 31 7 45 15 15 8 56 15 100 16 41 1 65 4 53 6 -26
5 -31 34 -8 53 22 18 18 30 -9 30 -14 0 -28 5 -31 10 -3 6 -19 10 -36 10 -16
0 -29 5 -29 10 0 6 8 10 19 10 10 0 45 3 79 6 l61 7 3 -34 c2 -29 7 -35 30
-37 15 -2 35 1 45 7 16 8 15 11 -12 22 -28 12 -28 13 -7 16 12 3 22 8 22 13 0
19 42 22 56 3 14 -17 15 -17 13 7 -4 67 14 85 96 95 l51 7 29 -42 c23 -33 26
-43 15 -50 -9 -6 -21 -1 -35 17 -16 18 -30 24 -51 21 -39 -4 -37 -30 4 -44 89
-28 57 -64 -57 -64 -43 0 -70 -4 -63 -8 7 -5 10 -16 7 -25 -9 -22 47 -31 152
-24 109 8 153 37 77 52 -60 11 -25 27 65 30 45 2 81 -1 81 -6 0 -4 17 -8 39
-6 22 1 37 6 34 13 -2 6 -18 8 -36 6 -32 -5 -32 -5 -13 16 10 12 22 20 25 17
4 -2 13 1 21 6 12 7 13 11 2 18 -11 6 -7 14 17 30 17 12 31 18 31 13 0 -5 14
-7 30 -4 17 2 30 0 30 -6 0 -6 3 -17 6 -26 5 -12 0 -16 -17 -16 -22 -1 -22 -2
-6 -11 23 -13 63 -7 60 9 -2 6 2 12 7 12 6 0 10 -8 10 -17 0 -15 9 -18 48 -19
32 0 55 -7 70 -20 13 -11 52 -24 95 -31 77 -12 190 -17 199 -8 3 4 1 17 -6 31
-9 19 -17 24 -41 22 -16 -2 -29 -8 -28 -13 1 -6 -7 -11 -17 -12 -22 -2 -17 22
6 31 8 3 14 12 14 21 0 11 -11 15 -45 15 -40 0 -45 -3 -51 -27 -9 -36 -15 -39
-64 -35 -26 3 -40 9 -40 18 0 8 7 14 15 14 8 0 19 9 25 20 7 13 21 20 40 20
16 0 32 5 35 10 7 11 74 14 99 4 13 -5 14 -9 5 -20 -18 -22 8 -18 38 6 14 11
32 20 41 20 10 0 12 6 8 23 -4 12 -10 52 -13 88 -4 53 -2 68 12 82 15 16 15
17 -2 18 -52 3 -112 1 -133 -5 -24 -7 -24 -6 5 19 36 31 72 42 88 26 17 -17
64 -13 72 7 5 14 4 15 -6 5 -7 -7 -20 -13 -28 -13 -11 0 -12 3 -5 8 6 4 15 23
19 42 4 19 24 55 44 80 29 36 172 189 177 190 1 0 1 -35 1 -77z m6271 42 c23
-11 42 -23 42 -27 0 -5 6 -8 13 -8 7 0 26 -13 41 -29 21 -22 26 -34 21 -54 -9
-33 -27 -39 -81 -26 -24 6 -51 9 -59 5 -9 -3 -18 0 -21 8 -3 7 -25 16 -49 19
-36 5 -72 20 -128 54 -4 2 -5 8 -2 13 7 11 65 -8 84 -28 11 -11 28 -12 75 -7
34 4 71 7 84 6 39 -2 24 23 -28 47 -28 13 -50 30 -50 38 0 9 3 14 8 12 4 -2
26 -12 50 -23z m-4936 -14 c-1 -6 11 -30 28 -53 16 -22 30 -51 30 -63 0 -31
23 -76 37 -71 7 3 15 -5 19 -17 3 -12 18 -32 33 -45 l26 -22 -29 10 c-35 13
-189 141 -213 176 -19 30 -9 46 12 18 13 -17 14 -17 15 -2 0 9 -4 20 -10 23
-5 3 -10 16 -9 28 0 12 3 16 6 9 4 -10 9 -8 20 8 15 21 40 22 35 1z m5553 -13
c37 -17 51 -30 53 -48 2 -14 0 -21 -5 -17 -4 5 -8 14 -8 20 0 14 -49 40 -53
28 -4 -11 -42 -2 -42 10 0 5 -17 8 -37 8 l-38 -2 37 -10 c21 -6 40 -18 44 -29
3 -10 14 -18 25 -18 11 0 19 -7 19 -16 0 -18 -31 -14 -88 13 -35 17 -58 9 -31
-10 40 -30 86 -75 103 -102 l19 -30 -21 19 c-12 11 -22 14 -22 8 0 -6 4 -13 9
-16 5 -3 9 -41 10 -85 1 -62 -2 -81 -15 -92 -15 -12 -16 -11 -11 6 22 78 12
122 -44 194 -23 29 -23 26 -4 -29 21 -59 34 -146 24 -162 -6 -8 -9 1 -9 25 0
43 -46 148 -84 192 -25 29 -24 28 5 -27 34 -65 42 -139 20 -181 -8 -15 -17
-27 -20 -27 -3 0 -6 31 -6 70 0 41 -6 75 -13 82 -9 9 -12 5 -12 -19 0 -20 -10
-42 -30 -63 -24 -26 -32 -29 -49 -21 -15 8 -21 24 -23 59 -4 46 -4 47 -12 14
-9 -36 -35 -55 -60 -46 -21 8 -20 22 1 20 10 0 19 10 24 28 10 38 7 41 -23 23
-12 -8 -33 -18 -45 -22 -20 -5 -23 -3 -23 19 0 24 -13 32 -42 27 -13 -2 -9 8
13 38 12 16 19 34 15 39 -11 17 16 27 79 28 35 1 61 6 63 13 9 27 90 101 122
110 51 15 128 6 185 -21z m1195 6 c0 -3 -11 -22 -25 -42 -14 -20 -25 -43 -25
-52 0 -8 7 -2 15 13 8 15 27 40 43 56 26 27 28 27 27 7 -1 -11 -8 -37 -16 -56
-8 -19 -26 -63 -38 -97 -13 -35 -27 -63 -31 -63 -9 0 -20 60 -20 115 -1 57
-16 25 -23 -49 -6 -60 -12 -75 -24 -62 -26 26 23 204 58 213 11 3 19 9 19 14
0 5 9 9 20 9 11 0 20 -2 20 -6z m-10646 -15 c-6 -10 12 -117 40 -244 10 -46
16 -53 76 -93 36 -24 66 -50 68 -58 2 -8 1 -14 -2 -14 -19 0 -61 25 -97 57
-30 27 -39 31 -30 16 6 -12 31 -38 56 -56 24 -19 42 -37 38 -41 -3 -3 -28 -9
-55 -12 -77 -10 -57 -26 25 -18 39 3 69 3 65 -1 -3 -4 -31 -9 -61 -12 -72 -7
-132 16 -182 68 -20 21 -40 39 -43 39 -16 0 -36 69 -35 125 1 77 12 125 29
132 8 3 14 11 14 19 0 8 5 14 10 14 6 0 10 -12 10 -26 0 -14 4 -23 10 -19 6 3
10 17 10 30 0 27 16 42 23 23 5 -12 11 26 8 46 -2 8 18 36 26 36 2 0 1 -5 -3
-11z m1806 -64 c0 -59 -6 -69 -19 -33 -4 12 -11 17 -14 11 -3 -5 1 -20 10 -32
14 -21 21 -22 64 -17 l48 7 -9 -33 c-5 -18 -24 -46 -42 -61 -18 -15 -32 -35
-30 -43 5 -22 -25 -28 -54 -9 -25 16 -25 16 -14 -4 13 -25 39 -27 83 -5 l32
15 -28 -25 c-37 -34 -72 -33 -108 3 -23 23 -29 38 -29 71 0 25 -4 39 -10 35
-5 -3 -10 -15 -10 -25 0 -11 -16 -50 -35 -87 l-34 -68 -1 42 c0 66 54 224 89
257 16 16 37 26 48 24 15 -3 13 -7 -13 -22 -39 -23 -60 -59 -68 -111 l-6 -40
15 44 c17 50 72 114 92 107 9 -4 13 4 13 24 0 20 5 30 15 30 12 0 15 -13 15
-55z m9113 -3 c43 -40 57 -75 57 -137 0 -40 -4 -55 -14 -55 -7 0 -25 -9 -40
-21 l-26 -20 2 23 c0 13 -4 41 -10 63 -14 49 -15 58 -3 50 20 -12 18 12 -4 39
-23 29 -23 29 -24 5 -1 -67 -6 -77 -76 -136 -17 -15 -69 -18 -60 -3 11 17 22
110 14 110 -4 0 -9 10 -12 23 -4 24 -2 28 -29 -45 -6 -16 -14 -28 -19 -28 -22
0 -3 136 22 164 5 5 21 3 39 -4 21 -9 34 -10 38 -3 4 5 16 15 27 21 25 13 77
-7 118 -46z m-6263 13 c0 -8 6 -12 14 -9 9 3 19 -4 26 -16 9 -17 9 -21 0 -15
-7 4 -33 7 -58 7 -39 -1 -50 -6 -67 -28 -28 -40 -54 -65 -105 -104 -25 -18
-55 -45 -67 -59 -44 -52 -18 25 30 86 42 54 137 142 158 146 50 9 69 7 69 -8z
m-820 -85 c0 -5 23 -21 51 -35 28 -14 49 -31 46 -38 -2 -7 -32 -15 -68 -18
-75 -7 -123 -26 -191 -75 -27 -19 -46 -29 -41 -21 30 53 85 110 126 132 27 15
46 29 43 32 -12 12 -100 -43 -167 -105 -59 -55 -69 -61 -53 -34 10 19 43 55
73 80 30 26 60 53 68 61 24 23 113 40 113 21z m800 -14 c6 -8 24 -17 38 -19
15 -2 5 -5 -23 -6 l-50 -2 51 -17 c28 -10 64 -27 80 -37 l29 -19 -46 -7 c-25
-4 -72 -9 -105 -13 -60 -5 -66 -10 -106 -67 l-17 -24 6 35 c3 19 13 49 21 65
l15 30 -28 -25 c-23 -20 -26 -21 -17 -5 16 29 84 101 107 114 26 14 30 14 45
-3z m-736 -111 c-4 -8 -1 -15 6 -15 21 0 77 -48 83 -71 5 -19 2 -21 -26 -16
-50 7 -175 -37 -216 -76 -20 -19 -45 -37 -56 -41 -18 -6 -17 -5 4 17 22 25 22
25 2 32 -12 4 -18 12 -14 21 7 19 -40 19 -57 -1 -7 -8 -17 -15 -23 -15 -30 0
119 118 178 140 14 5 25 14 25 19 0 11 23 18 67 20 25 1 31 -2 27 -14z m-510
-81 c4 -10 -3 -23 -16 -35 -17 -14 -19 -18 -7 -19 8 0 20 5 26 11 6 6 17 9 25
7 9 -3 1 -17 -24 -42 -44 -44 -46 -50 -15 -41 20 6 20 6 7 -8 -20 -20 -73 -25
-94 -8 -19 16 -21 72 -4 89 9 9 9 15 0 24 -9 9 -6 14 11 24 33 18 84 17 91 -2z
m1251 -10 c12 -5 13 -9 5 -14 -9 -6 -9 -12 1 -28 12 -18 10 -24 -10 -41 -12
-11 -20 -25 -16 -31 4 -6 4 -19 0 -28 -6 -15 -8 -14 -16 6 -5 13 -14 20 -20
16 -7 -4 -9 0 -5 14 5 13 1 22 -10 26 -9 4 -20 3 -23 0 -3 -4 0 -9 7 -11 17
-7 15 -23 -4 -23 -10 0 -14 -5 -10 -15 4 -10 -2 -19 -17 -25 -17 -8 -15 -9 13
-4 19 4 37 10 38 15 2 5 8 7 13 3 16 -9 -46 -54 -76 -54 -9 0 -12 -6 -9 -15 7
-18 10 -18 -48 0 -28 8 -50 10 -53 5 -3 -5 -18 -7 -33 -5 -108 18 -147 28
-166 40 -23 17 -21 17 48 19 16 1 31 7 34 15 3 8 0 11 -7 7 -6 -4 -18 -3 -27
2 -12 7 -13 10 -2 19 25 19 177 63 219 63 29 0 50 7 71 25 29 24 69 32 103 19z
m5231 -8 c10 -26 -29 -75 -90 -113 -52 -32 -71 -38 -138 -43 -56 -4 -78 -2
-78 6 0 17 27 25 58 18 25 -6 26 -5 11 11 -9 9 -35 19 -58 22 -27 4 -41 11
-41 21 0 11 3 12 15 2 8 -6 18 -9 23 -6 6 3 27 -1 47 -10 20 -8 47 -14 59 -13
11 1 29 -1 39 -6 10 -4 24 -2 33 6 9 7 25 18 37 24 37 18 30 31 -15 29 -24 0
-43 -2 -43 -4 0 -1 -15 -3 -32 -5 -34 -3 -43 8 -20 22 6 4 28 9 47 10 19 1 46
11 60 22 30 23 78 27 86 7z m-10006 -54 c0 -5 16 -30 35 -55 34 -45 70 -64
108 -58 10 1 17 -4 17 -13 0 -21 1 -21 57 14 44 27 103 48 103 37 0 -12 -112
-77 -146 -83 -85 -17 -119 -3 -184 79 -45 56 -56 95 -14 50 15 -15 22 -21 16
-13 -5 8 -13 30 -17 49 -7 32 -6 34 9 19 9 -9 16 -21 16 -26z m6138 -47 c50
-9 35 -35 -22 -35 -13 0 -25 -3 -29 -6 -10 -11 -211 -7 -239 5 -55 21 -27 37
77 43 58 4 175 0 213 -7z m4552 -161 c10 -10 10 -14 2 -14 -7 0 -12 -7 -12
-15 0 -8 -8 -15 -19 -15 -10 0 -24 -7 -31 -15 -16 -19 4 -20 83 -1 31 7 57 9
57 5 0 -15 130 -11 131 4 0 9 2 9 6 -1 3 -9 21 -11 61 -7 34 3 77 0 107 -8 46
-12 51 -16 66 -59 24 -68 27 -86 47 -330 6 -61 4 -91 -4 -103 -7 -9 -15 -39
-18 -68 -15 -116 -22 -65 -24 161 0 130 -6 251 -11 267 -7 21 -10 -38 -9 -207
1 -131 -1 -241 -5 -244 -4 -4 -7 3 -7 16 0 12 -8 29 -17 37 -10 8 -12 12 -5 8
8 -4 12 1 12 14 0 12 -3 21 -7 21 -14 0 -7 413 6 439 l13 23 -226 -4 c-143 -3
-230 0 -236 6 -5 5 -10 7 -10 3 0 -3 -11 -2 -25 3 -21 8 -30 6 -47 -10 -12
-11 -16 -20 -10 -20 7 0 12 -4 12 -8 0 -4 -9 -8 -20 -8 -14 0 -18 5 -14 18 4
13 -3 18 -30 24 -51 9 -45 27 6 20 33 -5 39 -3 30 6 -29 29 -8 41 48 27 9 -3
21 9 30 28 16 34 39 36 70 7z m79 -133 c8 -5 11 -16 8 -24 -3 -8 1 -23 8 -34
8 -10 12 -29 9 -43 -2 -14 -1 -19 2 -12 13 28 32 2 40 -58 2 -13 9 -29 16 -35
7 -5 15 -19 16 -30 2 -11 12 -31 22 -45 10 -14 23 -45 30 -70 7 -24 18 -49 26
-55 23 -16 89 -144 79 -153 -2 -3 -7 3 -11 12 -3 9 -10 16 -16 16 -12 0 -38
26 -38 37 0 17 -73 83 -92 83 -21 0 -19 -5 21 -59 34 -45 80 -91 92 -91 5 0 9
-7 9 -16 0 -13 -8 -11 -37 12 -51 37 -118 105 -126 127 -7 18 -27 24 -27 7 0
-7 -6 -7 -20 0 -14 8 -20 8 -20 0 0 -6 -4 -9 -9 -5 -14 8 -24 -13 -17 -40 4
-14 15 -25 29 -27 14 -2 21 -9 20 -22 -1 -12 2 -15 9 -8 8 8 15 7 24 -1 34
-30 44 -37 61 -40 37 -8 72 -27 82 -46 9 -16 16 -18 46 -11 24 5 38 4 45 -5 8
-9 5 -14 -9 -18 -11 -3 -23 -2 -26 1 -6 6 -11 7 -74 10 -33 2 -34 3 -15 18 18
15 18 15 -3 5 -26 -13 -93 -14 -93 -2 0 5 -14 11 -32 15 -34 7 -48 -4 -48 -37
0 -15 3 -16 21 -7 13 7 25 8 32 2 12 -10 61 -18 184 -30 112 -12 105 -25 -12
-24 -16 0 -95 1 -174 2 -114 1 -147 4 -159 16 -11 11 -12 18 -4 23 12 7 11 49
-3 71 -6 10 -4 12 9 7 10 -4 22 -7 27 -7 5 0 9 -6 9 -14 0 -8 7 -16 15 -20 8
-3 15 -1 15 5 0 6 8 8 19 4 12 -3 21 0 25 11 8 20 -1 34 -20 34 -8 0 -17 6
-20 14 -3 8 -16 17 -29 20 -16 4 -24 15 -28 38 -5 38 11 54 30 30 13 -16 14
-15 11 3 -2 13 -12 21 -28 22 -43 2 -45 3 -30 13 10 6 15 27 17 62 0 29 2 63
2 75 1 15 6 21 16 17 8 -3 13 -15 12 -26 -1 -12 4 -23 12 -26 11 -3 12 2 7 23
-4 15 -2 33 4 41 9 10 8 19 -4 36 -18 26 -20 38 -6 38 15 0 80 -69 80 -85 0
-16 47 -100 64 -115 11 -9 16 -7 21 10 4 12 2 27 -4 33 -6 6 -11 20 -11 30 0
10 -9 32 -21 48 -11 16 -17 29 -13 29 3 0 1 6 -5 14 -7 8 -9 25 -6 39 5 19 2
28 -14 36 -11 7 -23 26 -27 46 -3 19 -10 35 -15 35 -5 0 -7 11 -3 24 3 13 1
27 -5 30 -6 4 -11 11 -11 17 0 11 21 12 39 0z m252 -73 c0 -13 2 -74 4 -135 2
-68 0 -113 -5 -113 -6 0 -10 -5 -10 -11 0 -5 4 -7 10 -4 9 6 19 -23 19 -55 0
-8 7 -41 16 -73 9 -32 14 -64 12 -70 -5 -14 -43 65 -50 103 -3 14 -12 52 -21
85 -24 92 -25 200 -1 275 9 27 25 25 26 -2z m-411 -58 c0 -5 -4 -10 -9 -10 -5
0 -13 -18 -19 -40 -5 -22 -6 -38 -1 -35 9 6 7 -55 -4 -71 -3 -6 5 -24 19 -39
15 -16 19 -25 10 -22 -10 4 -16 1 -16 -7 0 -8 -7 -17 -16 -20 -12 -4 -15 -2
-11 9 4 8 2 17 -2 20 -5 2 -11 -4 -14 -15 -4 -15 3 -22 28 -31 30 -11 56 -49
34 -49 -5 0 -9 -5 -9 -12 0 -6 -7 -19 -16 -29 -15 -16 -15 -20 0 -41 20 -28
21 -54 1 -62 -9 -3 -15 0 -15 9 0 7 -6 20 -13 27 -19 18 -38 76 -27 83 5 3 11
1 15 -5 8 -13 35 -13 35 0 0 5 -13 22 -30 36 -16 15 -27 31 -23 37 3 6 5 41 4
79 -2 42 2 75 10 84 8 10 8 14 0 14 -6 0 -11 16 -11 35 0 24 -5 35 -15 35 -29
0 -15 19 18 23 62 7 77 7 77 -3z m606 -358 c-3 -25 -13 -56 -21 -68 -19 -30
-19 -34 4 -34 28 0 32 -12 16 -41 -25 -42 -36 -72 -30 -78 3 -3 10 1 15 9 5 8
11 12 14 10 6 -6 -63 -90 -73 -90 -11 0 -31 47 -31 74 0 13 13 48 30 79 16 30
34 83 39 116 11 69 18 84 33 75 6 -4 8 -24 4 -52z m-6698 -387 c0 -28 -36 -59
-81 -70 -15 -4 -30 -11 -33 -17 -7 -11 17 -42 25 -31 7 10 39 30 67 42 11 5
32 25 48 45 33 44 43 45 44 7 0 -22 -3 -28 -14 -24 -8 3 -14 -1 -14 -10 0 -20
16 -31 25 -17 12 20 25 -1 25 -40 0 -21 5 -42 10 -45 6 -3 10 -21 9 -38 0 -30
-1 -30 -10 -9 -6 15 -13 21 -21 15 -7 -4 -23 -6 -35 -4 -13 1 -23 -2 -23 -8 0
-6 11 -11 24 -11 14 0 40 -13 58 -30 37 -34 54 -39 43 -12 -10 23 -55 223 -55
241 0 11 3 12 11 4 11 -11 69 -260 69 -295 0 -27 -22 -22 -81 17 -30 21 -56
32 -61 27 -15 -15 -77 20 -78 45 0 16 -10 25 -35 33 -20 7 -44 21 -54 31 -17
19 -19 19 -74 -13 -42 -24 -56 -39 -57 -55 0 -13 -5 -23 -12 -23 -6 0 -20 -7
-30 -16 -14 -14 -20 -15 -33 -4 -13 11 -19 10 -38 -7 -12 -11 -34 -28 -49 -38
-26 -16 -28 -16 -28 0 0 29 64 85 97 85 21 0 33 7 43 25 8 14 35 36 61 47 26
12 45 26 42 31 -2 4 1 15 8 23 10 12 9 16 -9 21 -25 6 -27 20 -9 54 10 20 16
22 33 15 l22 -10 -22 -17 c-21 -17 -20 -17 24 -14 25 2 53 4 63 4 10 1 28 11
41 24 18 17 49 40 62 46 1 1 2 -10 2 -24z"/>
<path d="M7540 3390 c0 -29 -2 -30 -45 -30 -41 0 -45 -2 -45 -25 0 -18 -7 -26
-25 -31 -14 -3 -25 -10 -25 -14 0 -5 -9 -11 -19 -15 -26 -8 -34 -35 -25 -90 5
-35 10 -45 25 -45 16 0 19 8 19 55 0 52 1 55 25 55 21 0 25 5 25 30 0 29 2 30
45 30 41 0 45 2 45 25 0 22 4 25 34 25 50 0 66 9 66 36 0 22 -4 24 -50 24 -49
0 -50 -1 -50 -30z"/>
<path d="M3040 1980 c-11 -7 45 -40 90 -53 19 -6 -31 -27 -63 -27 -20 0 -20 0
-1 14 26 19 10 32 -21 18 -21 -10 -25 -9 -25 4 0 8 -5 12 -10 9 -6 -4 -10 -12
-9 -18 1 -7 -1 -20 -6 -30 -11 -26 6 -38 61 -42 38 -3 42 -2 19 4 -51 13 -5
23 80 17 50 -3 83 -1 95 6 14 9 22 9 34 -2 9 -7 19 -10 22 -7 9 9 -20 35 -37
35 -32 -2 -49 3 -49 13 0 7 10 9 25 7 14 -3 25 -1 25 3 0 5 -9 9 -20 9 -11 0
-20 5 -20 10 0 6 5 10 11 10 5 0 7 5 4 10 -9 15 -92 13 -98 -2 -3 -10 -9 -10
-28 -1 -35 17 -65 22 -79 13z"/>
<path d="M6674 1831 c4 -5 -3 -7 -14 -4 -15 4 -19 2 -14 -10 3 -8 0 -18 -7
-23 -20 -12 -89 -22 -89 -13 0 5 9 9 20 9 11 0 20 3 20 8 0 4 -92 7 -205 7
-112 0 -201 -3 -197 -6 4 -4 32 -14 64 -23 93 -27 339 -24 473 6 57 12 104 42
81 51 -8 3 -22 4 -33 2 -62 -13 -83 -14 -78 -5 3 6 -1 10 -10 10 -9 0 -14 -4
-11 -9z"/>
<path d="M1221 1793 c16 -21 49 -78 49 -87 0 -12 -20 -6 -20 7 -1 19 -46 66
-75 77 -17 7 -24 7 -20 0 3 -6 12 -10 20 -10 8 0 22 -17 31 -37 10 -21 19 -41
21 -45 2 -5 -1 -8 -7 -8 -6 0 -15 11 -22 24 -26 58 -40 15 -29 -90 1 -13 74
-54 94 -54 7 0 19 16 27 35 8 19 17 35 22 35 12 0 28 -37 22 -53 -3 -8 -1 -18
5 -22 7 -4 11 6 12 27 2 55 6 73 17 95 11 19 9 22 -18 28 -29 6 -35 17 -31 58
2 11 -5 17 -18 17 -10 0 -28 3 -38 6 -10 3 -6 -2 10 -11 15 -8 27 -22 27 -30
0 -23 -13 -18 -45 20 -30 35 -61 51 -34 18z"/>
<path d="M10477 1745 c4 -11 6 -48 5 -82 -1 -37 3 -63 9 -63 6 0 9 12 8 28 -5
71 1 122 16 122 8 0 15 -4 15 -10 0 -5 13 -7 30 -3 17 3 30 3 30 0 0 -4 -13
-13 -30 -22 -34 -18 -38 -32 -12 -42 23 -9 46 -33 38 -40 -3 -3 -17 -1 -31 5
-22 10 -25 9 -31 -14 -8 -32 -3 -37 30 -24 19 7 32 6 46 -2 14 -9 22 -9 32 0
11 8 21 8 41 -3 20 -10 27 -11 28 -2 1 7 3 25 5 41 3 26 2 27 -15 12 -26 -24
-44 -21 -31 4 6 11 15 18 19 15 20 -12 41 50 32 96 0 4 -19 3 -41 -1 -22 -4
-41 -5 -44 -3 -2 2 -38 5 -80 6 -72 2 -75 1 -69 -18z"/>
<path d="M10548 1568 c-26 -9 -39 -28 -19 -28 13 0 81 -57 75 -63 -9 -8 -36 3
-63 27 -22 19 -24 19 -17 2 3 -10 2 -24 -2 -30 -5 -6 -6 -22 -3 -35 6 -21 8
-22 21 -9 8 8 25 17 38 20 18 5 15 -1 -17 -30 -27 -25 -41 -47 -43 -67 -3 -33
-6 -32 128 -36 34 -1 41 -5 37 -19 -3 -10 2 -20 11 -23 18 -7 22 8 6 18 -6 4
-7 12 -3 18 4 6 8 21 9 33 2 16 -2 21 -12 17 -8 -3 -14 -9 -14 -14 0 -5 -7 -9
-15 -9 -8 0 -12 6 -9 14 4 11 23 24 68 44 4 3 7 -14 4 -37 -3 -32 0 -40 10
-36 8 3 16 5 18 5 3 0 2 5 -2 12 -4 7 -7 61 -5 120 2 74 -1 108 -9 108 -6 0
-10 -6 -9 -12 5 -40 -2 -89 -12 -82 -6 3 -9 15 -6 25 5 20 -7 26 -18 9 -3 -6
-20 -17 -36 -26 -29 -14 -29 -14 -17 5 7 11 25 26 40 32 l28 11 -23 18 c-27
21 -102 30 -139 18z"/>
<path d="M10560 1282 c0 -6 -9 -14 -20 -17 -11 -3 -20 -11 -20 -16 0 -6 5 -7
10 -4 6 3 10 3 10 -2 0 -4 15 -18 34 -31 41 -28 38 -54 -10 -85 -19 -12 -34
-25 -34 -28 0 -3 20 -20 45 -37 l46 -32 32 30 c18 16 35 30 40 30 17 0 4 19
-28 41 -46 31 -45 47 1 20 19 -12 36 -21 38 -21 1 0 1 12 0 28 -3 57 -3 57
-16 44 -7 -7 -18 -12 -25 -12 -19 0 -16 20 5 27 39 14 43 25 16 46 -29 22
-124 37 -124 19z"/>
</g>
</svg>
